<?xml version="1.0" encoding="UTF-8" standalone="no"?>
<?xml-stylesheet href="common/css/sf.css" type="text/css"?>
<!DOCTYPE svg PUBLIC "-//W3C//DTD SVG 1.1//EN"
 "http://www.w3.org/Graphics/SVG/1.1/DTD/svg11.dtd">
<!-- Generated by graphviz version 2.44.1 (20200629.0846)
 -->
<!-- Pages: 1 -->
<svg width="504pt" height="1082pt"
 viewBox="0.00 21.60 504.00 1060.12" xmlns="http://www.w3.org/2000/svg" xmlns:xlink="http://www.w3.org/1999/xlink">
<g id="graph0" class="graph deps" transform="scale(0.98 0.98) rotate(0) translate(4 1072.94)">
<polygon fill="white" stroke="transparent" points="-4,4 -4,-1051 508,-1051 508,4 -4,4"/>
<!-- legend -->
<g id="node1" class="node">
<title>legend</title>
<g id="a_node1"><a xlink:title="Go to chapter" target="_top">
<polygon fill="WhiteSmoke" stroke="transparent" points="222.5,-1047 13.5,-1047 13.5,-960 222.5,-960 222.5,-1047"/>
<polygon fill="lightblue" stroke="transparent" points="18,-1009.5 18,-1042.5 101,-1042.5 101,-1009.5 18,-1009.5"/>
<polygon fill="none" stroke="#7f7f7f" points="18,-1009.5 18,-1042.5 101,-1042.5 101,-1009.5 18,-1009.5"/>
<text text-anchor="start" x="29" y="-1023.5" font-family="Times,serif" font-size="10.00"> Core chapters </text>
<polygon fill="lightyellow" stroke="transparent" points="111,-1009.5 111,-1042.5 219,-1042.5 219,-1009.5 111,-1009.5"/>
<polygon fill="none" stroke="#7f7f7f" points="111,-1009.5 111,-1042.5 219,-1042.5 219,-1009.5 111,-1009.5"/>
<text text-anchor="start" x="122" y="-1023.5" font-family="Times,serif" font-size="10.00">Contributed chapters</text>
<text text-anchor="start" x="23" y="-993.5" font-family="Times,serif" font-size="10.00" fill="gray">⟶</text>
<text text-anchor="start" x="39" y="-993.5" font-family="Times,serif" font-size="10.00"> &#160;&#160;&#160;&#160;Chapter dependencies</text>
<text text-anchor="start" x="23" y="-972.5" font-family="Times,serif" font-size="10.00" fill="blue">⟶</text>
<text text-anchor="start" x="39" y="-972.5" font-family="Times,serif" font-size="10.00"> &#160;&#160;&#160;&#160;Recommended path for semester course</text>
</a>
</g>
</g>
<!-- Preface -->
<g id="node2" class="node">
<title>Preface</title>
<g id="a_node2"><a xlink:href="Preface.html" xlink:title="Go to chapter" target="_top">
<polygon fill="lightblue" stroke="black" points="316.5,-1021.5 253.5,-1021.5 253.5,-985.5 316.5,-985.5 316.5,-1021.5"/>
<text text-anchor="middle" x="285" y="-1000.7" font-family="Times,serif" font-size="11.00">Preface</text>
</a>
</g>
</g>
<!-- Basics -->
<g id="node4" class="node">
<title>Basics</title>
<g id="a_node4"><a xlink:href="Basics.html" xlink:title="Go to chapter" target="_top">
<polygon fill="lightblue" stroke="black" points="360.5,-924 209.5,-924 209.5,-880 360.5,-880 360.5,-924"/>
<text text-anchor="start" x="270" y="-907.2" font-family="Times,serif" font-size="11.00">Basics</text>
<text text-anchor="start" x="228" y="-890.8" font-family="Times,serif" font-size="9.00">Functional Programming in Coq</text>
</a>
</g>
</g>
<!-- Preface&#45;&gt;Basics -->
<g id="edge18" class="edge">
<title>Preface&#45;&gt;Basics</title>
<path fill="none" stroke="blue" d="M285,-985.17C285,-971.28 285,-951.43 285,-934.72"/>
<polygon fill="blue" stroke="blue" points="288.5,-934.28 285,-924.28 281.5,-934.28 288.5,-934.28"/>
</g>
<!-- Postscript -->
<g id="node3" class="node">
<title>Postscript</title>
<g id="a_node3"><a xlink:href="Postscript.html" xlink:title="Go to chapter" target="_top">
<polygon fill="lightblue" stroke="black" points="406,-120 334,-120 334,-84 406,-84 406,-120"/>
<text text-anchor="middle" x="370" y="-99.2" font-family="Times,serif" font-size="11.00">Postscript</text>
</a>
</g>
</g>
<!-- Bib -->
<g id="node18" class="node">
<title>Bib</title>
<g id="a_node18"><a xlink:href="Bib.html" xlink:title="Go to chapter" target="_top">
<polygon fill="lightblue" stroke="black" points="411.5,-44 328.5,-44 328.5,0 411.5,0 411.5,-44"/>
<text text-anchor="start" x="362.5" y="-27.2" font-family="Times,serif" font-size="11.00">Bib</text>
<text text-anchor="start" x="347" y="-10.8" font-family="Times,serif" font-size="9.00">Bibliography</text>
</a>
</g>
</g>
<!-- Postscript&#45;&gt;Bib -->
<g id="edge14" class="edge">
<title>Postscript&#45;&gt;Bib</title>
<path fill="none" stroke="gray" d="M370,-83.69C370,-75.03 370,-64.28 370,-54.24"/>
<polygon fill="gray" stroke="gray" points="373.5,-54.15 370,-44.15 366.5,-54.15 373.5,-54.15"/>
</g>
<!-- Induction -->
<g id="node5" class="node">
<title>Induction</title>
<g id="a_node5"><a xlink:href="Induction.html" xlink:title="Go to chapter" target="_top">
<polygon fill="lightblue" stroke="black" points="337,-844 233,-844 233,-800 337,-800 337,-844"/>
<text text-anchor="start" x="264" y="-827.2" font-family="Times,serif" font-size="11.00">Induction</text>
<text text-anchor="start" x="251" y="-810.8" font-family="Times,serif" font-size="9.00">Proof by Induction</text>
</a>
</g>
</g>
<!-- Basics&#45;&gt;Induction -->
<g id="edge1" class="edge">
<title>Basics&#45;&gt;Induction</title>
<path fill="none" stroke="gray" d="M278.91,-879.69C278.28,-871.8 278.1,-862.68 278.37,-854.1"/>
<polygon fill="gray" stroke="gray" points="281.87,-854.2 278.93,-844.02 274.89,-853.81 281.87,-854.2"/>
</g>
<!-- Basics&#45;&gt;Induction -->
<g id="edge19" class="edge">
<title>Basics&#45;&gt;Induction</title>
<path fill="none" stroke="blue" d="M291.09,-879.69C291.72,-871.8 291.9,-862.68 291.63,-854.1"/>
<polygon fill="blue" stroke="blue" points="295.11,-853.81 291.07,-844.02 288.13,-854.2 295.11,-853.81"/>
</g>
<!-- Lists -->
<g id="node6" class="node">
<title>Lists</title>
<g id="a_node6"><a xlink:href="Lists.html" xlink:title="Go to chapter" target="_top">
<polygon fill="lightblue" stroke="black" points="357,-764 213,-764 213,-720 357,-720 357,-764"/>
<text text-anchor="start" x="274" y="-747.2" font-family="Times,serif" font-size="11.00">Lists</text>
<text text-anchor="start" x="231" y="-730.8" font-family="Times,serif" font-size="9.00">Working with Structured Data</text>
</a>
</g>
</g>
<!-- Induction&#45;&gt;Lists -->
<g id="edge2" class="edge">
<title>Induction&#45;&gt;Lists</title>
<path fill="none" stroke="gray" d="M278.91,-799.69C278.28,-791.8 278.1,-782.68 278.37,-774.1"/>
<polygon fill="gray" stroke="gray" points="281.87,-774.2 278.93,-764.02 274.89,-773.81 281.87,-774.2"/>
</g>
<!-- Induction&#45;&gt;Lists -->
<g id="edge20" class="edge">
<title>Induction&#45;&gt;Lists</title>
<path fill="none" stroke="blue" d="M291.09,-799.69C291.72,-791.8 291.9,-782.68 291.63,-774.1"/>
<polygon fill="blue" stroke="blue" points="295.11,-773.81 291.07,-764.02 288.13,-774.2 295.11,-773.81"/>
</g>
<!-- Poly -->
<g id="node7" class="node">
<title>Poly</title>
<g id="a_node7"><a xlink:href="Poly.html" xlink:title="Go to chapter" target="_top">
<polygon fill="lightblue" stroke="black" points="381.5,-684 188.5,-684 188.5,-640 381.5,-640 381.5,-684"/>
<text text-anchor="start" x="275.5" y="-667.2" font-family="Times,serif" font-size="11.00">Poly</text>
<text text-anchor="start" x="207" y="-650.8" font-family="Times,serif" font-size="9.00">Polymorphism and Higher&#45;Order Functions</text>
</a>
</g>
</g>
<!-- Lists&#45;&gt;Poly -->
<g id="edge3" class="edge">
<title>Lists&#45;&gt;Poly</title>
<path fill="none" stroke="gray" d="M278.91,-719.69C278.28,-711.8 278.1,-702.68 278.37,-694.1"/>
<polygon fill="gray" stroke="gray" points="281.87,-694.2 278.93,-684.02 274.89,-693.81 281.87,-694.2"/>
</g>
<!-- Lists&#45;&gt;Poly -->
<g id="edge21" class="edge">
<title>Lists&#45;&gt;Poly</title>
<path fill="none" stroke="blue" d="M291.09,-719.69C291.72,-711.8 291.9,-702.68 291.63,-694.1"/>
<polygon fill="blue" stroke="blue" points="295.11,-693.81 291.07,-684.02 288.13,-694.2 295.11,-693.81"/>
</g>
<!-- Tactics -->
<g id="node8" class="node">
<title>Tactics</title>
<g id="a_node8"><a xlink:href="Tactics.html" xlink:title="Go to chapter" target="_top">
<polygon fill="lightblue" stroke="black" points="337.5,-604 232.5,-604 232.5,-560 337.5,-560 337.5,-604"/>
<text text-anchor="start" x="269.5" y="-587.2" font-family="Times,serif" font-size="11.00">Tactics</text>
<text text-anchor="start" x="251" y="-570.8" font-family="Times,serif" font-size="9.00">More Basic Tactics</text>
</a>
</g>
</g>
<!-- Poly&#45;&gt;Tactics -->
<g id="edge4" class="edge">
<title>Poly&#45;&gt;Tactics</title>
<path fill="none" stroke="gray" d="M278.91,-639.69C278.28,-631.8 278.1,-622.68 278.37,-614.1"/>
<polygon fill="gray" stroke="gray" points="281.87,-614.2 278.93,-604.02 274.89,-613.81 281.87,-614.2"/>
</g>
<!-- Poly&#45;&gt;Tactics -->
<g id="edge22" class="edge">
<title>Poly&#45;&gt;Tactics</title>
<path fill="none" stroke="blue" d="M291.09,-639.69C291.72,-631.8 291.9,-622.68 291.63,-614.1"/>
<polygon fill="blue" stroke="blue" points="295.11,-613.81 291.07,-604.02 288.13,-614.2 295.11,-613.81"/>
</g>
<!-- Logic -->
<g id="node10" class="node">
<title>Logic</title>
<g id="a_node10"><a xlink:href="Logic.html" xlink:title="Go to chapter" target="_top">
<polygon fill="lightblue" stroke="black" points="326.5,-524 243.5,-524 243.5,-480 326.5,-480 326.5,-524"/>
<text text-anchor="start" x="272.5" y="-507.2" font-family="Times,serif" font-size="11.00">Logic</text>
<text text-anchor="start" x="262" y="-490.8" font-family="Times,serif" font-size="9.00">Logic in Coq</text>
</a>
</g>
</g>
<!-- Tactics&#45;&gt;Logic -->
<g id="edge5" class="edge">
<title>Tactics&#45;&gt;Logic</title>
<path fill="none" stroke="gray" d="M278.91,-559.69C278.28,-551.8 278.1,-542.68 278.37,-534.1"/>
<polygon fill="gray" stroke="gray" points="281.87,-534.2 278.93,-524.02 274.89,-533.81 281.87,-534.2"/>
</g>
<!-- Tactics&#45;&gt;Logic -->
<g id="edge23" class="edge">
<title>Tactics&#45;&gt;Logic</title>
<path fill="none" stroke="blue" d="M291.09,-559.69C291.72,-551.8 291.9,-542.68 291.63,-534.1"/>
<polygon fill="blue" stroke="blue" points="295.11,-533.81 291.07,-524.02 288.13,-534.2 295.11,-533.81"/>
</g>
<!-- IndProp -->
<g id="node9" class="node">
<title>IndProp</title>
<g id="a_node9"><a xlink:href="IndProp.html" xlink:title="Go to chapter" target="_top">
<polygon fill="lightblue" stroke="black" points="362,-444 208,-444 208,-400 362,-400 362,-444"/>
<text text-anchor="start" x="267.5" y="-427.2" font-family="Times,serif" font-size="11.00">IndProp</text>
<text text-anchor="start" x="226" y="-410.8" font-family="Times,serif" font-size="9.00">Inductively Defined Propositions</text>
</a>
</g>
</g>
<!-- Maps -->
<g id="node11" class="node">
<title>Maps</title>
<g id="a_node11"><a xlink:href="Maps.html" xlink:title="Go to chapter" target="_top">
<polygon fill="lightblue" stroke="black" points="183.5,-364 66.5,-364 66.5,-320 183.5,-320 183.5,-364"/>
<text text-anchor="start" x="113" y="-347.2" font-family="Times,serif" font-size="11.00">Maps</text>
<text text-anchor="start" x="85" y="-330.8" font-family="Times,serif" font-size="9.00">Total and Partial Maps</text>
</a>
</g>
</g>
<!-- IndProp&#45;&gt;Maps -->
<g id="edge7" class="edge">
<title>IndProp&#45;&gt;Maps</title>
<path fill="none" stroke="gray" d="M235.63,-399.89C215.1,-390.27 191.45,-378.79 171.26,-368.67"/>
<polygon fill="gray" stroke="gray" points="172.76,-365.5 162.26,-364.12 169.61,-371.75 172.76,-365.5"/>
</g>
<!-- IndProp&#45;&gt;Maps -->
<g id="edge25" class="edge">
<title>IndProp&#45;&gt;Maps</title>
<path fill="none" stroke="blue" d="M247.78,-399.89C228.64,-390.18 204.94,-378.58 183.46,-368.39"/>
<polygon fill="blue" stroke="blue" points="184.95,-365.22 174.41,-364.12 181.96,-371.56 184.95,-365.22"/>
</g>
<!-- ProofObjects -->
<g id="node12" class="node">
<title>ProofObjects</title>
<g id="a_node12"><a xlink:href="ProofObjects.html" xlink:title="Go to chapter" target="_top">
<polygon fill="lightblue" stroke="black" points="368,-364 202,-364 202,-320 368,-320 368,-364"/>
<text text-anchor="start" x="255.5" y="-347.2" font-family="Times,serif" font-size="11.00">ProofObjects</text>
<text text-anchor="start" x="220" y="-330.8" font-family="Times,serif" font-size="9.00">The Curry&#45;Howard Correspondence</text>
</a>
</g>
</g>
<!-- IndProp&#45;&gt;ProofObjects -->
<g id="edge9" class="edge">
<title>IndProp&#45;&gt;ProofObjects</title>
<path fill="none" stroke="gray" d="M285,-399.69C285,-391.8 285,-382.68 285,-374.1"/>
<polygon fill="gray" stroke="gray" points="288.5,-374.02 285,-364.02 281.5,-374.02 288.5,-374.02"/>
</g>
<!-- Rel -->
<g id="node17" class="node">
<title>Rel</title>
<g id="a_node17"><a xlink:href="Rel.html" xlink:title="Go to chapter" target="_top">
<polygon fill="lightblue" stroke="black" points="504,-364 386,-364 386,-320 504,-320 504,-364"/>
<text text-anchor="start" x="437" y="-347.2" font-family="Times,serif" font-size="11.00">Rel</text>
<text text-anchor="start" x="404" y="-330.8" font-family="Times,serif" font-size="9.00">Properties of Relations</text>
</a>
</g>
</g>
<!-- IndProp&#45;&gt;Rel -->
<g id="edge11" class="edge">
<title>IndProp&#45;&gt;Rel</title>
<path fill="none" stroke="gray" d="M328.3,-399.89C348.13,-390.22 371.8,-378.68 392.63,-368.53"/>
<polygon fill="gray" stroke="gray" points="394.21,-371.65 401.67,-364.12 391.14,-365.36 394.21,-371.65"/>
</g>
<!-- Logic&#45;&gt;IndProp -->
<g id="edge6" class="edge">
<title>Logic&#45;&gt;IndProp</title>
<path fill="none" stroke="gray" d="M278.91,-479.69C278.28,-471.8 278.1,-462.68 278.37,-454.1"/>
<polygon fill="gray" stroke="gray" points="281.87,-454.2 278.93,-444.02 274.89,-453.81 281.87,-454.2"/>
</g>
<!-- Logic&#45;&gt;IndProp -->
<g id="edge24" class="edge">
<title>Logic&#45;&gt;IndProp</title>
<path fill="none" stroke="blue" d="M291.09,-479.69C291.72,-471.8 291.9,-462.68 291.63,-454.1"/>
<polygon fill="blue" stroke="blue" points="295.11,-453.81 291.07,-444.02 288.13,-454.2 295.11,-453.81"/>
</g>
<!-- Imp -->
<g id="node14" class="node">
<title>Imp</title>
<g id="a_node14"><a xlink:href="Imp.html" xlink:title="Go to chapter" target="_top">
<polygon fill="lightblue" stroke="black" points="205,-284 67,-284 67,-240 205,-240 205,-284"/>
<text text-anchor="start" x="127" y="-267.2" font-family="Times,serif" font-size="11.00">Imp</text>
<text text-anchor="start" x="85" y="-250.8" font-family="Times,serif" font-size="9.00">Simple Imperative Programs</text>
</a>
</g>
</g>
<!-- Maps&#45;&gt;Imp -->
<g id="edge8" class="edge">
<title>Maps&#45;&gt;Imp</title>
<path fill="none" stroke="gray" d="M121.91,-319.69C122.4,-311.8 123.5,-302.68 124.99,-294.1"/>
<polygon fill="gray" stroke="gray" points="128.48,-294.51 126.97,-284.02 121.61,-293.16 128.48,-294.51"/>
</g>
<!-- Maps&#45;&gt;Imp -->
<g id="edge26" class="edge">
<title>Maps&#45;&gt;Imp</title>
<path fill="none" stroke="blue" d="M134.1,-319.69C135.84,-311.8 137.3,-302.68 138.24,-294.1"/>
<polygon fill="blue" stroke="blue" points="141.74,-294.28 139.1,-284.02 134.76,-293.68 141.74,-294.28"/>
</g>
<!-- IndPrinciples -->
<g id="node13" class="node">
<title>IndPrinciples</title>
<g id="a_node13"><a xlink:href="IndPrinciples.html" xlink:title="Go to chapter" target="_top">
<polygon fill="lightblue" stroke="black" points="336.5,-284 233.5,-284 233.5,-240 336.5,-240 336.5,-284"/>
<text text-anchor="start" x="256" y="-267.2" font-family="Times,serif" font-size="11.00">IndPrinciples</text>
<text text-anchor="start" x="252" y="-250.8" font-family="Times,serif" font-size="9.00">More on Induction</text>
</a>
</g>
</g>
<!-- ProofObjects&#45;&gt;IndPrinciples -->
<g id="edge10" class="edge">
<title>ProofObjects&#45;&gt;IndPrinciples</title>
<path fill="none" stroke="gray" d="M285,-319.69C285,-311.8 285,-302.68 285,-294.1"/>
<polygon fill="gray" stroke="gray" points="288.5,-294.02 285,-284.02 281.5,-294.02 288.5,-294.02"/>
</g>
<!-- ImpParser -->
<g id="node15" class="node">
<title>ImpParser</title>
<g id="a_node15"><a xlink:href="ImpParser.html" xlink:title="Go to chapter" target="_top">
<polygon fill="lightblue" stroke="black" points="132,-204 0,-204 0,-160 132,-160 132,-204"/>
<text text-anchor="start" x="43" y="-187.2" font-family="Times,serif" font-size="11.00">ImpParser</text>
<text text-anchor="start" x="18" y="-170.8" font-family="Times,serif" font-size="9.00">Lexing and Parsing in Coq</text>
</a>
</g>
</g>
<!-- Imp&#45;&gt;ImpParser -->
<g id="edge15" class="edge">
<title>Imp&#45;&gt;ImpParser</title>
<path fill="none" stroke="gray" d="M116.87,-239.69C109.09,-231.02 99.99,-220.87 91.64,-211.57"/>
<polygon fill="gray" stroke="gray" points="94.15,-209.12 84.86,-204.02 88.94,-213.8 94.15,-209.12"/>
</g>
<!-- ImpCEvalFun -->
<g id="node16" class="node">
<title>ImpCEvalFun</title>
<g id="a_node16"><a xlink:href="ImpCEvalFun.html" xlink:title="Go to chapter" target="_top">
<polygon fill="lightblue" stroke="black" points="301.5,-204 150.5,-204 150.5,-160 301.5,-160 301.5,-204"/>
<text text-anchor="start" x="195.5" y="-187.2" font-family="Times,serif" font-size="11.00">ImpCEvalFun</text>
<text text-anchor="start" x="169" y="-170.8" font-family="Times,serif" font-size="9.00">An Evaluation Function for Imp</text>
</a>
</g>
</g>
<!-- Imp&#45;&gt;ImpCEvalFun -->
<g id="edge17" class="edge">
<title>Imp&#45;&gt;ImpCEvalFun</title>
<path fill="none" stroke="gray" d="M160.59,-239.69C170.9,-230.76 183.01,-220.26 193.99,-210.74"/>
<polygon fill="gray" stroke="gray" points="196.48,-213.21 201.75,-204.02 191.9,-207.92 196.48,-213.21"/>
</g>
<!-- Auto -->
<g id="node19" class="node">
<title>Auto</title>
<g id="a_node19"><a xlink:href="Auto.html" xlink:title="Go to chapter" target="_top">
<polygon fill="lightblue" stroke="black" points="420,-204 320,-204 320,-160 420,-160 420,-204"/>
<text text-anchor="start" x="359" y="-187.2" font-family="Times,serif" font-size="11.00">Auto</text>
<text text-anchor="start" x="338" y="-170.8" font-family="Times,serif" font-size="9.00">More Automation</text>
</a>
</g>
</g>
<!-- Imp&#45;&gt;Auto -->
<g id="edge12" class="edge">
<title>Imp&#45;&gt;Auto</title>
<path fill="none" stroke="gray" d="M194.1,-239.9C226,-229.33 266.16,-216.21 302,-204 304.7,-203.08 307.47,-202.13 310.27,-201.16"/>
<polygon fill="gray" stroke="gray" points="311.58,-204.41 319.88,-197.83 309.29,-197.8 311.58,-204.41"/>
</g>
<!-- Imp&#45;&gt;Auto -->
<g id="edge27" class="edge">
<title>Imp&#45;&gt;Auto</title>
<path fill="none" stroke="blue" d="M205.25,-241.49C236.82,-231.63 274.81,-219.28 309.78,-207.47"/>
<polygon fill="blue" stroke="blue" points="311.21,-210.68 319.56,-204.15 308.96,-204.05 311.21,-210.68"/>
</g>
<!-- Extraction -->
<g id="node20" class="node">
<title>Extraction</title>
<g id="a_node20"><a xlink:href="Extraction.html" xlink:title="Go to chapter" target="_top">
<polygon fill="lightblue" stroke="black" points="128.5,-124 3.5,-124 3.5,-80 128.5,-80 128.5,-124"/>
<text text-anchor="start" x="43.5" y="-107.2" font-family="Times,serif" font-size="11.00">Extraction</text>
<text text-anchor="start" x="22" y="-90.8" font-family="Times,serif" font-size="9.00">Extracting ML from Coq</text>
</a>
</g>
</g>
<!-- ImpParser&#45;&gt;Extraction -->
<g id="edge16" class="edge">
<title>ImpParser&#45;&gt;Extraction</title>
<path fill="none" stroke="gray" d="M66,-159.69C66,-151.8 66,-142.68 66,-134.1"/>
<polygon fill="gray" stroke="gray" points="69.5,-134.02 66,-124.02 62.5,-134.02 69.5,-134.02"/>
</g>
<!-- Auto&#45;&gt;Postscript -->
<g id="edge13" class="edge">
<title>Auto&#45;&gt;Postscript</title>
<path fill="none" stroke="gray" d="M363.91,-159.69C363.19,-150.64 363.06,-139.99 363.52,-130.37"/>
<polygon fill="gray" stroke="gray" points="367.04,-130.33 364.3,-120.09 360.06,-129.8 367.04,-130.33"/>
</g>
<!-- Auto&#45;&gt;Postscript -->
<g id="edge28" class="edge">
<title>Auto&#45;&gt;Postscript</title>
<path fill="none" stroke="blue" d="M376.09,-159.69C376.81,-150.64 376.94,-139.99 376.48,-130.37"/>
<polygon fill="blue" stroke="blue" points="379.94,-129.8 375.7,-120.09 372.96,-130.33 379.94,-129.8"/>
</g>
</g>
</svg>
