<?xml version="1.0" encoding="UTF-8" standalone="no"?>
<?xml-stylesheet href="common/css/sf.css" type="text/css"?>
<!DOCTYPE svg PUBLIC "-//W3C//DTD SVG 1.1//EN"
 "http://www.w3.org/Graphics/SVG/1.1/DTD/svg11.dtd">
<!-- Generated by graphviz version 2.44.1 (20200629.0846)
 -->
<!-- Pages: 1 -->
<svg width="576pt" height="690pt"
 viewBox="0.00 21.60 576.00 668.18" xmlns="http://www.w3.org/2000/svg" xmlns:xlink="http://www.w3.org/1999/xlink">
<g id="graph0" class="graph deps" transform="scale(0.99 0.99) rotate(0) translate(4 672.88)">
<polygon fill="white" stroke="transparent" points="-4,4 -4,-651 579.5,-651 579.5,4 -4,4"/>
<!-- Preface -->
<g id="node1" class="node">
<title>Preface</title>
<g id="a_node1"><a xlink:href="Preface.html" xlink:title="Go to chapter" target="_top">
<polygon fill="lightblue" stroke="black" points="76.5,-621.5 13.5,-621.5 13.5,-585.5 76.5,-585.5 76.5,-621.5"/>
<text text-anchor="middle" x="45" y="-600.7" font-family="Times,serif" font-size="11.00">Preface</text>
</a>
</g>
</g>
<!-- Perm -->
<g id="node3" class="node">
<title>Perm</title>
<g id="a_node3"><a xlink:href="Perm.html" xlink:title="Go to chapter" target="_top">
<polygon fill="lightblue" stroke="black" points="330,-625.5 126,-625.5 126,-581.5 330,-581.5 330,-625.5"/>
<text text-anchor="start" x="216" y="-608.7" font-family="Times,serif" font-size="11.00">Perm</text>
<text text-anchor="start" x="144" y="-592.3" font-family="Times,serif" font-size="9.00">Basic techniques for permutations and ordering</text>
</a>
</g>
</g>
<!-- Preface&#45;&gt;Perm -->
<g id="edge19" class="edge">
<title>Preface&#45;&gt;Perm</title>
<path fill="none" stroke="blue" d="M76.81,-603.5C89.7,-603.5 102.6,-603.5 115.49,-603.5"/>
<polygon fill="blue" stroke="blue" points="115.83,-607 125.83,-603.5 115.83,-600 115.83,-607"/>
</g>
<!-- legend -->
<g id="node2" class="node">
<title>legend</title>
<g id="a_node2"><a xlink:title="Go to chapter" target="_top">
<polygon fill="WhiteSmoke" stroke="transparent" points="569.5,-647 360.5,-647 360.5,-560 569.5,-560 569.5,-647"/>
<polygon fill="lightblue" stroke="transparent" points="365,-609.5 365,-642.5 448,-642.5 448,-609.5 365,-609.5"/>
<polygon fill="none" stroke="#7f7f7f" points="365,-609.5 365,-642.5 448,-642.5 448,-609.5 365,-609.5"/>
<text text-anchor="start" x="376" y="-623.5" font-family="Times,serif" font-size="10.00"> Core chapters </text>
<polygon fill="lightyellow" stroke="transparent" points="458,-609.5 458,-642.5 566,-642.5 566,-609.5 458,-609.5"/>
<polygon fill="none" stroke="#7f7f7f" points="458,-609.5 458,-642.5 566,-642.5 566,-609.5 458,-609.5"/>
<text text-anchor="start" x="469" y="-623.5" font-family="Times,serif" font-size="10.00">Contributed chapters</text>
<text text-anchor="start" x="370" y="-593.5" font-family="Times,serif" font-size="10.00" fill="gray">⟶</text>
<text text-anchor="start" x="386" y="-593.5" font-family="Times,serif" font-size="10.00"> &#160;&#160;&#160;&#160;Chapter dependencies</text>
<text text-anchor="start" x="370" y="-572.5" font-family="Times,serif" font-size="10.00" fill="blue">⟶</text>
<text text-anchor="start" x="386" y="-572.5" font-family="Times,serif" font-size="10.00"> &#160;&#160;&#160;&#160;Recommended path for semester course</text>
</a>
</g>
</g>
<!-- Sort -->
<g id="node4" class="node">
<title>Sort</title>
<g id="a_node4"><a xlink:href="Sort.html" xlink:title="Go to chapter" target="_top">
<polygon fill="lightblue" stroke="black" points="263,-524 179,-524 179,-480 263,-480 263,-524"/>
<text text-anchor="start" x="211.5" y="-507.2" font-family="Times,serif" font-size="11.00">Sort</text>
<text text-anchor="start" x="197" y="-490.8" font-family="Times,serif" font-size="9.00">Insertion sort</text>
</a>
</g>
</g>
<!-- Perm&#45;&gt;Sort -->
<g id="edge1" class="edge">
<title>Perm&#45;&gt;Sort</title>
<path fill="none" stroke="gray" d="M220.88,-581.4C218.71,-567.68 217.21,-549.55 216.88,-534.18"/>
<polygon fill="gray" stroke="gray" points="220.38,-534.06 216.85,-524.07 213.38,-534.08 220.38,-534.06"/>
</g>
<!-- Perm&#45;&gt;Sort -->
<g id="edge20" class="edge">
<title>Perm&#45;&gt;Sort</title>
<path fill="none" stroke="blue" d="M232.15,-581.4C232.39,-567.68 231.34,-549.55 229.51,-534.18"/>
<polygon fill="blue" stroke="blue" points="232.95,-533.5 228.12,-524.07 226.01,-534.45 232.95,-533.5"/>
</g>
<!-- Trie -->
<g id="node11" class="node">
<title>Trie</title>
<g id="a_node11"><a xlink:href="Trie.html" xlink:title="Go to chapter" target="_top">
<polygon fill="lightblue" stroke="black" points="575.5,-364 358.5,-364 358.5,-320 575.5,-320 575.5,-364"/>
<text text-anchor="start" x="458" y="-347.2" font-family="Times,serif" font-size="11.00">Trie</text>
<text text-anchor="start" x="377" y="-330.8" font-family="Times,serif" font-size="9.00">Number representations and efficient lookup tables</text>
</a>
</g>
</g>
<!-- Perm&#45;&gt;Trie -->
<g id="edge5" class="edge">
<title>Perm&#45;&gt;Trie</title>
<path fill="none" stroke="gray" d="M247.56,-581.26C290.29,-534.86 392.04,-424.39 440.48,-371.79"/>
<polygon fill="gray" stroke="gray" points="443.31,-373.89 447.51,-364.17 438.16,-369.15 443.31,-373.89"/>
</g>
<!-- Multiset -->
<g id="node5" class="node">
<title>Multiset</title>
<g id="a_node5"><a xlink:href="Multiset.html" xlink:title="Go to chapter" target="_top">
<polygon fill="lightblue" stroke="black" points="136,-364 0,-364 0,-320 136,-320 136,-364"/>
<text text-anchor="start" x="49.5" y="-347.2" font-family="Times,serif" font-size="11.00">Multiset</text>
<text text-anchor="start" x="18" y="-330.8" font-family="Times,serif" font-size="9.00">Insertion sort with multisets</text>
</a>
</g>
</g>
<!-- Sort&#45;&gt;Multiset -->
<g id="edge2" class="edge">
<title>Sort&#45;&gt;Multiset</title>
<path fill="none" stroke="gray" d="M178.73,-496.63C144.84,-490.71 99.09,-476.78 75,-444 60.42,-424.16 59.7,-395.79 62.04,-374.17"/>
<polygon fill="gray" stroke="gray" points="65.52,-374.54 63.38,-364.16 58.58,-373.61 65.52,-374.54"/>
</g>
<!-- Merge -->
<g id="node6" class="node">
<title>Merge</title>
<g id="a_node6"><a xlink:href="Merge.html" xlink:title="Go to chapter" target="_top">
<polygon fill="lightblue" stroke="black" points="160,-444 84,-444 84,-400 160,-400 160,-444"/>
<text text-anchor="start" x="107" y="-427.2" font-family="Times,serif" font-size="11.00">Merge</text>
<text text-anchor="start" x="102" y="-410.8" font-family="Times,serif" font-size="9.00">Merge sort</text>
</a>
</g>
</g>
<!-- Sort&#45;&gt;Merge -->
<g id="edge11" class="edge">
<title>Sort&#45;&gt;Merge</title>
<path fill="none" stroke="gray" d="M194.21,-479.89C182.65,-470.79 168.99,-460.02 156.67,-450.32"/>
<polygon fill="gray" stroke="gray" points="158.83,-447.56 148.81,-444.12 154.5,-453.06 158.83,-447.56"/>
</g>
<!-- Selection -->
<g id="node7" class="node">
<title>Selection</title>
<g id="a_node7"><a xlink:href="Selection.html" xlink:title="Go to chapter" target="_top">
<polygon fill="lightblue" stroke="black" points="263.5,-444 178.5,-444 178.5,-400 263.5,-400 263.5,-444"/>
<text text-anchor="start" x="200.5" y="-427.2" font-family="Times,serif" font-size="11.00">Selection</text>
<text text-anchor="start" x="197" y="-410.8" font-family="Times,serif" font-size="9.00">Selection sort</text>
</a>
</g>
</g>
<!-- Sort&#45;&gt;Selection -->
<g id="edge6" class="edge">
<title>Sort&#45;&gt;Selection</title>
<path fill="none" stroke="gray" d="M221,-479.69C221,-471.8 221,-462.68 221,-454.1"/>
<polygon fill="gray" stroke="gray" points="224.5,-454.02 221,-444.02 217.5,-454.02 224.5,-454.02"/>
</g>
<!-- SearchTree -->
<g id="node8" class="node">
<title>SearchTree</title>
<g id="a_node8"><a xlink:href="SearchTree.html" xlink:title="Go to chapter" target="_top">
<polygon fill="lightblue" stroke="black" points="266,-364 162,-364 162,-320 266,-320 266,-364"/>
<text text-anchor="start" x="188" y="-347.2" font-family="Times,serif" font-size="11.00">SearchTree</text>
<text text-anchor="start" x="180" y="-330.8" font-family="Times,serif" font-size="9.00">Binary search trees</text>
</a>
</g>
</g>
<!-- Sort&#45;&gt;SearchTree -->
<g id="edge21" class="edge">
<title>Sort&#45;&gt;SearchTree</title>
<path fill="none" stroke="blue" d="M246.76,-479.84C256.64,-470.09 266.79,-457.64 272,-444 278.98,-425.73 279.56,-418.03 272,-400 267.44,-389.12 259.68,-379.28 251.29,-370.95"/>
<polygon fill="blue" stroke="blue" points="253.54,-368.26 243.83,-364.03 248.78,-373.39 253.54,-368.26"/>
</g>
<!-- Decide -->
<g id="node14" class="node">
<title>Decide</title>
<g id="a_node14"><a xlink:href="Decide.html" xlink:title="Go to chapter" target="_top">
<polygon fill="lightblue" stroke="black" points="438,-124 262,-124 262,-80 438,-80 438,-124"/>
<text text-anchor="start" x="333.5" y="-107.2" font-family="Times,serif" font-size="11.00">Decide</text>
<text text-anchor="start" x="280" y="-90.8" font-family="Times,serif" font-size="9.00">Programming with decision procedures</text>
</a>
</g>
</g>
<!-- Sort&#45;&gt;Decide -->
<g id="edge3" class="edge">
<title>Sort&#45;&gt;Decide</title>
<path fill="none" stroke="gray" d="M253.93,-479.94C266.55,-470.36 280.05,-458.03 289,-444 352.29,-344.79 354.47,-198.01 351.98,-134.35"/>
<polygon fill="gray" stroke="gray" points="355.47,-133.99 351.51,-124.16 348.47,-134.31 355.47,-133.99"/>
</g>
<!-- Color -->
<g id="node15" class="node">
<title>Color</title>
<g id="a_node15"><a xlink:href="Color.html" xlink:title="Go to chapter" target="_top">
<polygon fill="lightblue" stroke="black" points="278.5,-44 187.5,-44 187.5,0 278.5,0 278.5,-44"/>
<text text-anchor="start" x="221" y="-27.2" font-family="Times,serif" font-size="11.00">Color</text>
<text text-anchor="start" x="206" y="-10.8" font-family="Times,serif" font-size="9.00">Graph coloring</text>
</a>
</g>
</g>
<!-- Multiset&#45;&gt;Color -->
<g id="edge14" class="edge">
<title>Multiset&#45;&gt;Color</title>
<path fill="none" stroke="gray" d="M49.04,-319.9C41.22,-309.79 33.04,-297.06 29,-284 9.19,-219.97 48.15,-100.78 67,-80 95.16,-48.95 140.99,-34.81 177.37,-28.37"/>
<polygon fill="gray" stroke="gray" points="178.04,-31.81 187.36,-26.75 176.92,-24.9 178.04,-31.81"/>
</g>
<!-- Merge&#45;&gt;SearchTree -->
<g id="edge12" class="edge">
<title>Merge&#45;&gt;SearchTree</title>
<path fill="none" stroke="gray" d="M147.14,-399.69C157.67,-390.76 170.05,-380.26 181.28,-370.74"/>
<polygon fill="gray" stroke="gray" points="183.85,-373.15 189.21,-364.02 179.32,-367.82 183.85,-373.15"/>
</g>
<!-- Selection&#45;&gt;SearchTree -->
<g id="edge7" class="edge">
<title>Selection&#45;&gt;SearchTree</title>
<path fill="none" stroke="gray" d="M219.09,-399.69C218.38,-391.8 217.56,-382.68 216.79,-374.1"/>
<polygon fill="gray" stroke="gray" points="220.27,-373.67 215.89,-364.02 213.29,-374.29 220.27,-373.67"/>
</g>
<!-- ADT -->
<g id="node9" class="node">
<title>ADT</title>
<g id="a_node9"><a xlink:href="ADT.html" xlink:title="Go to chapter" target="_top">
<polygon fill="lightblue" stroke="black" points="142,-284 38,-284 38,-240 142,-240 142,-284"/>
<text text-anchor="start" x="78" y="-267.2" font-family="Times,serif" font-size="11.00">ADT</text>
<text text-anchor="start" x="56" y="-250.8" font-family="Times,serif" font-size="9.00">Abstract data types</text>
</a>
</g>
</g>
<!-- SearchTree&#45;&gt;ADT -->
<g id="edge8" class="edge">
<title>SearchTree&#45;&gt;ADT</title>
<path fill="none" stroke="gray" d="M180.44,-319.89C165.56,-310.53 147.88,-299.41 132.11,-289.49"/>
<polygon fill="gray" stroke="gray" points="133.91,-286.49 123.58,-284.12 130.18,-292.41 133.91,-286.49"/>
</g>
<!-- Extract -->
<g id="node10" class="node">
<title>Extract</title>
<g id="a_node10"><a xlink:href="Extract.html" xlink:title="Go to chapter" target="_top">
<polygon fill="lightblue" stroke="black" points="305.5,-284 160.5,-284 160.5,-240 305.5,-240 305.5,-284"/>
<text text-anchor="start" x="217" y="-267.2" font-family="Times,serif" font-size="11.00">Extract</text>
<text text-anchor="start" x="179" y="-250.8" font-family="Times,serif" font-size="9.00">Running Coq programs in ML</text>
</a>
</g>
</g>
<!-- SearchTree&#45;&gt;Extract -->
<g id="edge4" class="edge">
<title>SearchTree&#45;&gt;Extract</title>
<path fill="none" stroke="gray" d="M219.19,-319.69C221.13,-311.71 223.38,-302.48 225.49,-293.82"/>
<polygon fill="gray" stroke="gray" points="228.91,-294.56 227.88,-284.02 222.11,-292.91 228.91,-294.56"/>
</g>
<!-- Redblack -->
<g id="node16" class="node">
<title>Redblack</title>
<g id="a_node16"><a xlink:href="Redblack.html" xlink:title="Go to chapter" target="_top">
<polygon fill="lightblue" stroke="black" points="278.5,-204 187.5,-204 187.5,-160 278.5,-160 278.5,-204"/>
<text text-anchor="start" x="212" y="-187.2" font-family="Times,serif" font-size="11.00">Redblack</text>
<text text-anchor="start" x="206" y="-170.8" font-family="Times,serif" font-size="9.00">Red&#45;black trees</text>
</a>
</g>
</g>
<!-- SearchTree&#45;&gt;Redblack -->
<g id="edge22" class="edge">
<title>SearchTree&#45;&gt;Redblack</title>
<path fill="none" stroke="blue" d="M266.04,-324.33C284.89,-315.49 304.19,-302.52 315,-284 324.86,-267.11 324.06,-257.33 315,-240 308.6,-227.76 298.24,-217.62 287.01,-209.45"/>
<polygon fill="blue" stroke="blue" points="288.97,-206.55 278.72,-203.86 285.05,-212.35 288.97,-206.55"/>
</g>
<!-- Priqueue -->
<g id="node12" class="node">
<title>Priqueue</title>
<g id="a_node12"><a xlink:href="Priqueue.html" xlink:title="Go to chapter" target="_top">
<polygon fill="lightblue" stroke="black" points="152.5,-204 61.5,-204 61.5,-160 152.5,-160 152.5,-204"/>
<text text-anchor="start" x="87.5" y="-187.2" font-family="Times,serif" font-size="11.00">Priqueue</text>
<text text-anchor="start" x="80" y="-170.8" font-family="Times,serif" font-size="9.00">Priority queues</text>
</a>
</g>
</g>
<!-- ADT&#45;&gt;Priqueue -->
<g id="edge9" class="edge">
<title>ADT&#45;&gt;Priqueue</title>
<path fill="none" stroke="gray" d="M94.65,-239.69C96.38,-231.71 98.39,-222.48 100.28,-213.82"/>
<polygon fill="gray" stroke="gray" points="103.71,-214.53 102.42,-204.02 96.87,-213.04 103.71,-214.53"/>
</g>
<!-- Extract&#45;&gt;Redblack -->
<g id="edge15" class="edge">
<title>Extract&#45;&gt;Redblack</title>
<path fill="none" stroke="gray" d="M233,-239.69C233,-231.8 233,-222.68 233,-214.1"/>
<polygon fill="gray" stroke="gray" points="236.5,-214.02 233,-204.02 229.5,-214.02 236.5,-214.02"/>
</g>
<!-- Trie&#45;&gt;Color -->
<g id="edge18" class="edge">
<title>Trie&#45;&gt;Color</title>
<path fill="none" stroke="gray" d="M472.71,-319.76C484.42,-271.08 505.39,-150.25 447,-80 426.93,-55.85 345.36,-39.32 288.93,-30.51"/>
<polygon fill="gray" stroke="gray" points="289.12,-27 278.71,-28.95 288.07,-33.92 289.12,-27"/>
</g>
<!-- Binom -->
<g id="node13" class="node">
<title>Binom</title>
<g id="a_node13"><a xlink:href="Binom.html" xlink:title="Go to chapter" target="_top">
<polygon fill="lightblue" stroke="black" points="172,-124 76,-124 76,-80 172,-80 172,-124"/>
<text text-anchor="start" x="109" y="-107.2" font-family="Times,serif" font-size="11.00">Binom</text>
<text text-anchor="start" x="94" y="-90.8" font-family="Times,serif" font-size="9.00">Binomial queues</text>
</a>
</g>
</g>
<!-- Priqueue&#45;&gt;Binom -->
<g id="edge10" class="edge">
<title>Priqueue&#45;&gt;Binom</title>
<path fill="none" stroke="gray" d="M111.65,-159.69C113.38,-151.71 115.39,-142.48 117.28,-133.82"/>
<polygon fill="gray" stroke="gray" points="120.71,-134.53 119.42,-124.02 113.87,-133.04 120.71,-134.53"/>
</g>
<!-- Binom&#45;&gt;Color -->
<g id="edge13" class="edge">
<title>Binom&#45;&gt;Color</title>
<path fill="none" stroke="gray" d="M153.5,-79.89C166.34,-70.7 181.55,-59.82 195.21,-50.04"/>
<polygon fill="gray" stroke="gray" points="197.38,-52.79 203.48,-44.12 193.31,-47.1 197.38,-52.79"/>
</g>
<!-- Decide&#45;&gt;Color -->
<g id="edge17" class="edge">
<title>Decide&#45;&gt;Color</title>
<path fill="none" stroke="gray" d="M318.34,-79.89C304.42,-70.61 287.92,-59.61 273.15,-49.77"/>
<polygon fill="gray" stroke="gray" points="274.95,-46.76 264.69,-44.12 271.07,-52.58 274.95,-46.76"/>
</g>
<!-- Redblack&#45;&gt;Color -->
<g id="edge16" class="edge">
<title>Redblack&#45;&gt;Color</title>
<path fill="none" stroke="gray" d="M233,-159.69C233,-132.64 233,-85.75 233,-54.55"/>
<polygon fill="gray" stroke="gray" points="236.5,-54.22 233,-44.22 229.5,-54.22 236.5,-54.22"/>
</g>
</g>
</svg>
