<?xml version="1.0" encoding="UTF-8" standalone="no"?>
<?xml-stylesheet href="common/css/sf.css" type="text/css"?>
<!DOCTYPE svg PUBLIC "-//W3C//DTD SVG 1.1//EN"
 "http://www.w3.org/Graphics/SVG/1.1/DTD/svg11.dtd">
<!-- Generated by graphviz version 2.50.0 (20211204.2007)
 -->
<!-- Pages: 1 -->
<svg width="576pt" height="611pt"
 viewBox="0.00 21.60 576.00 589.21" xmlns="http://www.w3.org/2000/svg" xmlns:xlink="http://www.w3.org/1999/xlink">
<g id="graph0" class="graph deps" transform="scale(0.99 0.99) rotate(0) translate(4 592.88)">
<polygon fill="white" stroke="transparent" points="-4,4 -4,-571 579.5,-571 579.5,4 -4,4"/>
<!-- Preface -->
<g id="node1" class="node">
<title>Preface</title>
<g id="a_node1"><a xlink:href="Preface.html" xlink:title="Go to chapter" target="_top">
<polygon fill="lightblue" stroke="black" points="94,-541.5 31,-541.5 31,-505.5 94,-505.5 94,-541.5"/>
<text text-anchor="middle" x="62.5" y="-520.7" font-family="Times,serif" font-size="11.00">Preface</text>
</a>
</g>
</g>
<!-- Perm -->
<g id="node3" class="node">
<title>Perm</title>
<g id="a_node3"><a xlink:href="Perm.html" xlink:title="Go to chapter" target="_top">
<polygon fill="lightblue" stroke="black" points="331.5,-545.5 127.5,-545.5 127.5,-501.5 331.5,-501.5 331.5,-545.5"/>
<text text-anchor="start" x="217.5" y="-528.7" font-family="Times,serif" font-size="11.00">Perm</text>
<text text-anchor="start" x="145.5" y="-512.3" font-family="Times,serif" font-size="9.00">Basic techniques for permutations and ordering</text>
</a>
</g>
</g>
<!-- Preface&#45;&gt;Perm -->
<g id="edge19" class="edge">
<title>Preface&#45;&gt;Perm</title>
<path fill="none" stroke="blue" d="M94.14,-523.5C101.86,-523.5 109.58,-523.5 117.3,-523.5"/>
<polygon fill="blue" stroke="blue" points="117.45,-527 127.45,-523.5 117.45,-520 117.45,-527"/>
</g>
<!-- legend -->
<g id="node2" class="node">
<title>legend</title>
<g id="a_node2"><a xlink:title="Go to chapter" target="_top">
<polygon fill="WhiteSmoke" stroke="transparent" points="567,-567 358,-567 358,-480 567,-480 567,-567"/>
<polygon fill="lightblue" stroke="transparent" points="362.5,-529.5 362.5,-562.5 445.5,-562.5 445.5,-529.5 362.5,-529.5"/>
<polygon fill="none" stroke="#7f7f7f" points="362.5,-529.5 362.5,-562.5 445.5,-562.5 445.5,-529.5 362.5,-529.5"/>
<text text-anchor="start" x="373.5" y="-543.5" font-family="Times,serif" font-size="10.00"> Core chapters </text>
<polygon fill="lightyellow" stroke="transparent" points="455.5,-529.5 455.5,-562.5 563.5,-562.5 563.5,-529.5 455.5,-529.5"/>
<polygon fill="none" stroke="#7f7f7f" points="455.5,-529.5 455.5,-562.5 563.5,-562.5 563.5,-529.5 455.5,-529.5"/>
<text text-anchor="start" x="466.5" y="-543.5" font-family="Times,serif" font-size="10.00">Contributed chapters</text>
<text text-anchor="start" x="367.5" y="-513.5" font-family="Times,serif" font-size="10.00" fill="gray">⟶</text>
<text text-anchor="start" x="383.5" y="-513.5" font-family="Times,serif" font-size="10.00"> &#160;&#160;&#160;&#160;Chapter dependencies</text>
<text text-anchor="start" x="367.5" y="-492.5" font-family="Times,serif" font-size="10.00" fill="blue">⟶</text>
<text text-anchor="start" x="383.5" y="-492.5" font-family="Times,serif" font-size="10.00"> &#160;&#160;&#160;&#160;Recommended path for semester course</text>
</a>
</g>
</g>
<!-- Sort -->
<g id="node4" class="node">
<title>Sort</title>
<g id="a_node4"><a xlink:href="Sort.html" xlink:title="Go to chapter" target="_top">
<polygon fill="lightblue" stroke="black" points="420.5,-444 336.5,-444 336.5,-400 420.5,-400 420.5,-444"/>
<text text-anchor="start" x="369" y="-427.2" font-family="Times,serif" font-size="11.00">Sort</text>
<text text-anchor="start" x="354.5" y="-410.8" font-family="Times,serif" font-size="9.00">Insertion sort</text>
</a>
</g>
</g>
<!-- Perm&#45;&gt;Sort -->
<g id="edge1" class="edge">
<title>Perm&#45;&gt;Sort</title>
<path fill="none" stroke="gray" d="M255.46,-501.4C276.75,-486.29 307.24,-465.84 332.58,-449.62"/>
<polygon fill="gray" stroke="gray" points="334.75,-452.39 341.31,-444.07 331,-446.48 334.75,-452.39"/>
</g>
<!-- Perm&#45;&gt;Sort -->
<g id="edge20" class="edge">
<title>Perm&#45;&gt;Sort</title>
<path fill="none" stroke="blue" d="M266.74,-501.4C290.58,-486.36 321.18,-466.02 344.39,-449.83"/>
<polygon fill="blue" stroke="blue" points="346.41,-452.69 352.58,-444.07 342.39,-446.96 346.41,-452.69"/>
</g>
<!-- Trie -->
<g id="node12" class="node">
<title>Trie</title>
<g id="a_node12"><a xlink:href="Trie.html" xlink:title="Go to chapter" target="_top">
<polygon fill="lightblue" stroke="black" points="217,-124 0,-124 0,-80 217,-80 217,-124"/>
<text text-anchor="start" x="99.5" y="-107.2" font-family="Times,serif" font-size="11.00">Trie</text>
<text text-anchor="start" x="18.5" y="-90.8" font-family="Times,serif" font-size="9.00">Number representations and efficient lookup tables</text>
</a>
</g>
</g>
<!-- Perm&#45;&gt;Trie -->
<g id="edge5" class="edge">
<title>Perm&#45;&gt;Trie</title>
<path fill="none" stroke="gray" d="M183.61,-501.48C130.28,-473.52 49.5,-418.69 49.5,-343 49.5,-343 49.5,-343 49.5,-261 49.5,-214.03 72.66,-163.89 89.96,-132.99"/>
<polygon fill="gray" stroke="gray" points="93.16,-134.46 95.11,-124.05 87.09,-130.97 93.16,-134.46"/>
</g>
<!-- Multiset -->
<g id="node5" class="node">
<title>Multiset</title>
<g id="a_node5"><a xlink:href="Multiset.html" xlink:title="Go to chapter" target="_top">
<polygon fill="lightblue" stroke="black" points="575.5,-284 439.5,-284 439.5,-240 575.5,-240 575.5,-284"/>
<text text-anchor="start" x="489" y="-267.2" font-family="Times,serif" font-size="11.00">Multiset</text>
<text text-anchor="start" x="457.5" y="-250.8" font-family="Times,serif" font-size="9.00">Insertion sort with multisets</text>
</a>
</g>
</g>
<!-- Sort&#45;&gt;Multiset -->
<g id="edge2" class="edge">
<title>Sort&#45;&gt;Multiset</title>
<path fill="none" stroke="gray" d="M395.95,-399.92C404.82,-389.18 415.75,-375.91 425.5,-364 445.24,-339.88 467.52,-312.42 483.87,-292.22"/>
<polygon fill="gray" stroke="gray" points="486.7,-294.29 490.27,-284.32 481.26,-289.89 486.7,-294.29"/>
</g>
<!-- Merge -->
<g id="node6" class="node">
<title>Merge</title>
<g id="a_node6"><a xlink:href="Merge.html" xlink:title="Go to chapter" target="_top">
<polygon fill="lightblue" stroke="black" points="553.5,-364 477.5,-364 477.5,-320 553.5,-320 553.5,-364"/>
<text text-anchor="start" x="500.5" y="-347.2" font-family="Times,serif" font-size="11.00">Merge</text>
<text text-anchor="start" x="495.5" y="-330.8" font-family="Times,serif" font-size="9.00">Merge sort</text>
</a>
</g>
</g>
<!-- Sort&#45;&gt;Merge -->
<g id="edge7" class="edge">
<title>Sort&#45;&gt;Merge</title>
<path fill="none" stroke="gray" d="M415.57,-399.89C432.17,-390.44 451.92,-379.2 469.46,-369.22"/>
<polygon fill="gray" stroke="gray" points="471.44,-372.11 478.4,-364.12 467.97,-366.03 471.44,-372.11"/>
</g>
<!-- Selection -->
<g id="node7" class="node">
<title>Selection</title>
<g id="a_node7"><a xlink:href="Selection.html" xlink:title="Go to chapter" target="_top">
<polygon fill="lightblue" stroke="black" points="383,-364 298,-364 298,-320 383,-320 383,-364"/>
<text text-anchor="start" x="320" y="-347.2" font-family="Times,serif" font-size="11.00">Selection</text>
<text text-anchor="start" x="316.5" y="-330.8" font-family="Times,serif" font-size="9.00">Selection sort</text>
</a>
</g>
</g>
<!-- Sort&#45;&gt;Selection -->
<g id="edge6" class="edge">
<title>Sort&#45;&gt;Selection</title>
<path fill="none" stroke="gray" d="M368.12,-399.69C364.15,-391.54 359.54,-382.08 355.24,-373.26"/>
<polygon fill="gray" stroke="gray" points="358.27,-371.48 350.74,-364.02 351.97,-374.54 358.27,-371.48"/>
</g>
<!-- SearchTree -->
<g id="node9" class="node">
<title>SearchTree</title>
<g id="a_node9"><a xlink:href="SearchTree.html" xlink:title="Go to chapter" target="_top">
<polygon fill="lightblue" stroke="black" points="279.5,-364 175.5,-364 175.5,-320 279.5,-320 279.5,-364"/>
<text text-anchor="start" x="201.5" y="-347.2" font-family="Times,serif" font-size="11.00">SearchTree</text>
<text text-anchor="start" x="193.5" y="-330.8" font-family="Times,serif" font-size="9.00">Binary search trees</text>
</a>
</g>
</g>
<!-- Sort&#45;&gt;SearchTree -->
<g id="edge9" class="edge">
<title>Sort&#45;&gt;SearchTree</title>
<path fill="none" stroke="gray" d="M336.47,-402.32C316.05,-392.27 291.58,-379.72 270.97,-368.76"/>
<polygon fill="gray" stroke="gray" points="272.57,-365.64 262.1,-364.01 269.26,-371.81 272.57,-365.64"/>
</g>
<!-- Sort&#45;&gt;SearchTree -->
<g id="edge21" class="edge">
<title>Sort&#45;&gt;SearchTree</title>
<path fill="none" stroke="blue" d="M343.71,-399.89C325.86,-390.27 303.74,-378.79 283.57,-368.67"/>
<polygon fill="blue" stroke="blue" points="284.98,-365.46 274.47,-364.12 281.86,-371.72 284.98,-365.46"/>
</g>
<!-- Decide -->
<g id="node15" class="node">
<title>Decide</title>
<g id="a_node15"><a xlink:href="Decide.html" xlink:title="Go to chapter" target="_top">
<polygon fill="lightblue" stroke="black" points="528.5,-204 352.5,-204 352.5,-160 528.5,-160 528.5,-204"/>
<text text-anchor="start" x="424" y="-187.2" font-family="Times,serif" font-size="11.00">Decide</text>
<text text-anchor="start" x="370.5" y="-170.8" font-family="Times,serif" font-size="9.00">Programming with decision procedures</text>
</a>
</g>
</g>
<!-- Sort&#45;&gt;Decide -->
<g id="edge3" class="edge">
<title>Sort&#45;&gt;Decide</title>
<path fill="none" stroke="gray" d="M384,-399.88C394.99,-357.71 419.67,-262.94 432.47,-213.83"/>
<polygon fill="gray" stroke="gray" points="435.88,-214.63 435.01,-204.07 429.1,-212.87 435.88,-214.63"/>
</g>
<!-- Color -->
<g id="node16" class="node">
<title>Color</title>
<g id="a_node16"><a xlink:href="Color.html" xlink:title="Go to chapter" target="_top">
<polygon fill="lightblue" stroke="black" points="438,-44 347,-44 347,0 438,0 438,-44"/>
<text text-anchor="start" x="380.5" y="-27.2" font-family="Times,serif" font-size="11.00">Color</text>
<text text-anchor="start" x="365.5" y="-10.8" font-family="Times,serif" font-size="9.00">Graph coloring</text>
</a>
</g>
</g>
<!-- Multiset&#45;&gt;Color -->
<g id="edge14" class="edge">
<title>Multiset&#45;&gt;Color</title>
<path fill="none" stroke="gray" d="M521.88,-239.79C534,-219.13 547.85,-186.98 537.5,-160 519.08,-112.01 473.28,-73.62 438.04,-49.82"/>
<polygon fill="gray" stroke="gray" points="439.61,-46.66 429.33,-44.09 435.76,-52.51 439.61,-46.66"/>
</g>
<!-- Maps -->
<g id="node8" class="node">
<title>Maps</title>
<g id="a_node8"><a xlink:href="Maps.html" xlink:title="Go to chapter" target="_top">
<polygon fill="lightblue" stroke="black" points="285,-444 170,-444 170,-400 285,-400 285,-444"/>
<text text-anchor="start" x="215.5" y="-427.2" font-family="Times,serif" font-size="11.00">Maps</text>
<text text-anchor="start" x="188.5" y="-410.8" font-family="Times,serif" font-size="9.00">Total and partial maps</text>
</a>
</g>
</g>
<!-- Maps&#45;&gt;SearchTree -->
<g id="edge8" class="edge">
<title>Maps&#45;&gt;SearchTree</title>
<path fill="none" stroke="gray" d="M227.5,-399.69C227.5,-391.8 227.5,-382.68 227.5,-374.1"/>
<polygon fill="gray" stroke="gray" points="231,-374.02 227.5,-364.02 224,-374.02 231,-374.02"/>
</g>
<!-- ADT -->
<g id="node10" class="node">
<title>ADT</title>
<g id="a_node10"><a xlink:href="ADT.html" xlink:title="Go to chapter" target="_top">
<polygon fill="lightblue" stroke="black" points="345.5,-284 241.5,-284 241.5,-240 345.5,-240 345.5,-284"/>
<text text-anchor="start" x="281.5" y="-267.2" font-family="Times,serif" font-size="11.00">ADT</text>
<text text-anchor="start" x="259.5" y="-250.8" font-family="Times,serif" font-size="9.00">Abstract data types</text>
</a>
</g>
</g>
<!-- SearchTree&#45;&gt;ADT -->
<g id="edge10" class="edge">
<title>SearchTree&#45;&gt;ADT</title>
<path fill="none" stroke="gray" d="M245.53,-319.69C252.8,-311.1 261.29,-301.07 269.09,-291.85"/>
<polygon fill="gray" stroke="gray" points="271.93,-293.91 275.72,-284.02 266.58,-289.39 271.93,-293.91"/>
</g>
<!-- Extract -->
<g id="node11" class="node">
<title>Extract</title>
<g id="a_node11"><a xlink:href="Extract.html" xlink:title="Go to chapter" target="_top">
<polygon fill="lightblue" stroke="black" points="223,-284 78,-284 78,-240 223,-240 223,-284"/>
<text text-anchor="start" x="134.5" y="-267.2" font-family="Times,serif" font-size="11.00">Extract</text>
<text text-anchor="start" x="96.5" y="-250.8" font-family="Times,serif" font-size="9.00">Running Coq programs in ML</text>
</a>
</g>
</g>
<!-- SearchTree&#45;&gt;Extract -->
<g id="edge4" class="edge">
<title>SearchTree&#45;&gt;Extract</title>
<path fill="none" stroke="gray" d="M206.46,-319.69C197.82,-310.93 187.68,-300.67 178.43,-291.3"/>
<polygon fill="gray" stroke="gray" points="180.76,-288.68 171.25,-284.02 175.78,-293.59 180.76,-288.68"/>
</g>
<!-- Redblack -->
<g id="node17" class="node">
<title>Redblack</title>
<g id="a_node17"><a xlink:href="Redblack.html" xlink:title="Go to chapter" target="_top">
<polygon fill="lightblue" stroke="black" points="326,-124 235,-124 235,-80 326,-80 326,-124"/>
<text text-anchor="start" x="259.5" y="-107.2" font-family="Times,serif" font-size="11.00">Redblack</text>
<text text-anchor="start" x="253.5" y="-90.8" font-family="Times,serif" font-size="9.00">Red&#45;black trees</text>
</a>
</g>
</g>
<!-- SearchTree&#45;&gt;Redblack -->
<g id="edge22" class="edge">
<title>SearchTree&#45;&gt;Redblack</title>
<path fill="none" stroke="blue" d="M279.62,-320.73C312.62,-307.37 349.92,-291.08 354.5,-284 365.13,-267.58 359.29,-258.96 354.5,-240 344.44,-200.21 320.28,-159.42 302.29,-132.82"/>
<polygon fill="blue" stroke="blue" points="305.01,-130.61 296.45,-124.37 299.25,-134.59 305.01,-130.61"/>
</g>
<!-- Priqueue -->
<g id="node13" class="node">
<title>Priqueue</title>
<g id="a_node13"><a xlink:href="Priqueue.html" xlink:title="Go to chapter" target="_top">
<polygon fill="lightblue" stroke="black" points="296,-204 205,-204 205,-160 296,-160 296,-204"/>
<text text-anchor="start" x="231" y="-187.2" font-family="Times,serif" font-size="11.00">Priqueue</text>
<text text-anchor="start" x="223.5" y="-170.8" font-family="Times,serif" font-size="9.00">Priority queues</text>
</a>
</g>
</g>
<!-- ADT&#45;&gt;Priqueue -->
<g id="edge11" class="edge">
<title>ADT&#45;&gt;Priqueue</title>
<path fill="none" stroke="gray" d="M281.75,-239.69C277.21,-231.45 271.93,-221.88 267.02,-212.97"/>
<polygon fill="gray" stroke="gray" points="269.98,-211.09 262.09,-204.02 263.85,-214.47 269.98,-211.09"/>
</g>
<!-- Extract&#45;&gt;Redblack -->
<g id="edge15" class="edge">
<title>Extract&#45;&gt;Redblack</title>
<path fill="none" stroke="gray" d="M156.15,-239.77C162.77,-217.92 175.48,-183.79 195.5,-160 205.26,-148.4 217.96,-138.2 230.55,-129.76"/>
<polygon fill="gray" stroke="gray" points="232.68,-132.55 239.21,-124.2 228.9,-126.66 232.68,-132.55"/>
</g>
<!-- Trie&#45;&gt;Color -->
<g id="edge18" class="edge">
<title>Trie&#45;&gt;Color</title>
<path fill="none" stroke="gray" d="M184.98,-79.99C232.99,-66.81 293.8,-50.11 337.16,-38.2"/>
<polygon fill="gray" stroke="gray" points="338.24,-41.53 346.96,-35.51 336.39,-34.78 338.24,-41.53"/>
</g>
<!-- Binom -->
<g id="node14" class="node">
<title>Binom</title>
<g id="a_node14"><a xlink:href="Binom.html" xlink:title="Go to chapter" target="_top">
<polygon fill="lightblue" stroke="black" points="440.5,-124 344.5,-124 344.5,-80 440.5,-80 440.5,-124"/>
<text text-anchor="start" x="377.5" y="-107.2" font-family="Times,serif" font-size="11.00">Binom</text>
<text text-anchor="start" x="362.5" y="-90.8" font-family="Times,serif" font-size="9.00">Binomial queues</text>
</a>
</g>
</g>
<!-- Priqueue&#45;&gt;Binom -->
<g id="edge12" class="edge">
<title>Priqueue&#45;&gt;Binom</title>
<path fill="none" stroke="gray" d="M288.93,-159.89C306.29,-150.35 326.97,-138.99 345.27,-128.94"/>
<polygon fill="gray" stroke="gray" points="346.96,-132.01 354.04,-124.12 343.59,-125.87 346.96,-132.01"/>
</g>
<!-- Binom&#45;&gt;Color -->
<g id="edge13" class="edge">
<title>Binom&#45;&gt;Color</title>
<path fill="none" stroke="gray" d="M392.5,-79.69C392.5,-71.8 392.5,-62.68 392.5,-54.1"/>
<polygon fill="gray" stroke="gray" points="396,-54.02 392.5,-44.02 389,-54.02 396,-54.02"/>
</g>
<!-- Decide&#45;&gt;Color -->
<g id="edge17" class="edge">
<title>Decide&#45;&gt;Color</title>
<path fill="none" stroke="gray" d="M448.01,-159.63C454.15,-138.56 460.21,-105.86 449.5,-80 445.03,-69.2 437.4,-59.38 429.16,-51.05"/>
<polygon fill="gray" stroke="gray" points="431.5,-48.44 421.83,-44.12 426.7,-53.53 431.5,-48.44"/>
</g>
<!-- Redblack&#45;&gt;Color -->
<g id="edge16" class="edge">
<title>Redblack&#45;&gt;Color</title>
<path fill="none" stroke="gray" d="M310.81,-79.89C324.01,-70.7 339.63,-59.82 353.67,-50.04"/>
<polygon fill="gray" stroke="gray" points="355.96,-52.71 362.17,-44.12 351.96,-46.97 355.96,-52.71"/>
</g>
</g>
</svg>
