<?xml version="1.0" encoding="UTF-8" standalone="no"?>
<?xml-stylesheet href="common/css/sf.css" type="text/css"?>
<!DOCTYPE svg PUBLIC "-//W3C//DTD SVG 1.1//EN"
 "http://www.w3.org/Graphics/SVG/1.1/DTD/svg11.dtd">
<!-- Generated by graphviz version 2.40.1 (20161225.0304)
 -->
<!-- Pages: 1 -->
<svg width="576pt" height="924pt"
 viewBox="0.00 21.60 576.00 902.32" xmlns="http://www.w3.org/2000/svg" xmlns:xlink="http://www.w3.org/1999/xlink">
<g id="graph0" class="graph deps" transform="scale(.929 .929) rotate(0) translate(4 967.25)">
<polygon fill="#ffffff" stroke="transparent" points="-4,4 -4,-944 616,-944 616,4 -4,4"/>
<g id="clust1" class="cluster deps">
<title>cluster_Chargueraud</title>
<polygon fill="none" stroke="#595959" points="368,-376 368,-587 604,-587 604,-376 368,-376"/>
</g>
<!-- LogicalFoundations -->
<g id="node1" class="node">
<title>LogicalFoundations</title>
<g id="a_node1"><a xlink:title="Go to chapter" target="_top">
<polygon fill="none" stroke="#000000" stroke-dasharray="1,5" points="358,-911 196,-911 196,-875 358,-875 358,-911"/>
<text text-anchor="start" x="213.7554" y="-889.2" font-family="Times,serif" font-size="11.00" fill="#000000"> &#160;&#160;&#160;&#160;Logical Foundations &#160;&#160;&#160;&#160;&#160;&#160;&#160;</text>
</a>
</g>
</g>
<!-- Preface -->
<g id="node3" class="node">
<title>Preface</title>
<g id="a_node3"><a xlink:href="Preface.html" xlink:title="Go to chapter" target="_top">
<polygon fill="#add8e6" stroke="#000000" points="307.4732,-810 246.5268,-810 246.5268,-774 307.4732,-774 307.4732,-810"/>
<text text-anchor="middle" x="277" y="-788.7" font-family="Times,serif" font-size="11.00" fill="#000000">Preface</text>
</a>
</g>
</g>
<!-- LogicalFoundations&#45;&gt;Preface -->
<g id="edge22" class="edge">
<title>LogicalFoundations&#45;&gt;Preface</title>
<path fill="none" stroke="#c0c0c0" d="M271.6841,-874.9432C270.1059,-859.813 269.8303,-837.9448 270.8572,-820.461"/>
<polygon fill="#c0c0c0" stroke="#c0c0c0" points="274.3661,-820.4857 271.665,-810.241 267.3879,-819.9341 274.3661,-820.4857"/>
</g>
<!-- LogicalFoundations&#45;&gt;Preface -->
<g id="edge24" class="edge">
<title>LogicalFoundations&#45;&gt;Preface</title>
<path fill="none" stroke="#0000ff" d="M282.3159,-874.9432C283.8941,-859.813 284.1697,-837.9448 283.1428,-820.461"/>
<polygon fill="#0000ff" stroke="#0000ff" points="286.6121,-819.9341 282.335,-810.241 279.6339,-820.4857 286.6121,-819.9341"/>
</g>
<!-- legend -->
<g id="node2" class="node">
<title>legend</title>
<g id="a_node2"><a xlink:title="Go to chapter" target="_top">
<polygon fill="#f5f5f5" stroke="transparent" points="593,-940 387,-940 387,-846 593,-846 593,-940"/>
<polygon fill="#add8e6" stroke="transparent" points="391,-904 391,-936 473,-936 473,-904 391,-904"/>
<polygon fill="none" stroke="#7f7f7f" points="391,-904 391,-936 473,-936 473,-904 391,-904"/>
<text text-anchor="start" x="401.873" y="-917" font-family="Times,serif" font-size="10.00" fill="#000000"> Core chapters </text>
<polygon fill="#ffffe0" stroke="transparent" points="483,-904 483,-936 589,-936 589,-904 483,-904"/>
<polygon fill="none" stroke="#7f7f7f" points="483,-904 483,-936 589,-936 589,-904 483,-904"/>
<text text-anchor="start" x="494.2056" y="-917" font-family="Times,serif" font-size="10.00" fill="#000000">Contributed chapters</text>
<text text-anchor="start" x="396" y="-888" font-family="Times,serif" font-size="10.00" fill="#c0c0c0">⟶</text>
<text text-anchor="start" x="411.74" y="-888" font-family="Times,serif" font-size="10.00" fill="#000000"> &#160;&#160;&#160;&#160;Chapter dependencies</text>
<text text-anchor="start" x="395.9093" y="-863" font-family="Times,serif" font-size="10.00" fill="#0000ff">⟶</text>
<text text-anchor="start" x="411.6493" y="-863" font-family="Times,serif" font-size="10.00" fill="#000000"> &#160;&#160;&#160;&#160;Recommended path for semester course</text>
</a>
</g>
</g>
<!-- Equiv -->
<g id="node6" class="node">
<title>Equiv</title>
<g id="a_node6"><a xlink:href="Equiv.html" xlink:title="Go to chapter" target="_top">
<polygon fill="#add8e6" stroke="#000000" points="204.5,-738 91.5,-738 91.5,-696 204.5,-696 204.5,-738"/>
<text text-anchor="start" x="135.3623" y="-721.2" font-family="Times,serif" font-size="11.00" fill="#000000">Equiv</text>
<text text-anchor="start" x="109.6392" y="-705.8" font-family="Times,serif" font-size="9.00" fill="#000000">Program Equivalence</text>
</a>
</g>
</g>
<!-- Preface&#45;&gt;Equiv -->
<g id="edge20" class="edge">
<title>Preface&#45;&gt;Equiv</title>
<path fill="none" stroke="#c0c0c0" d="M246.3403,-777.3612C228.5204,-767.7192 205.9947,-754.8166 186.9545,-743.4158"/>
<polygon fill="#c0c0c0" stroke="#c0c0c0" points="188.5726,-740.3043 178.203,-738.1311 184.954,-746.2965 188.5726,-740.3043"/>
</g>
<!-- Preface&#45;&gt;Equiv -->
<g id="edge25" class="edge">
<title>Preface&#45;&gt;Equiv</title>
<path fill="none" stroke="#0000ff" d="M251.6509,-773.8446C236.8102,-764.6891 217.6184,-753.4151 199.7605,-743.328"/>
<polygon fill="#0000ff" stroke="#0000ff" points="201.0082,-740.0151 190.5737,-738.1788 197.5856,-746.1213 201.0082,-740.0151"/>
</g>
<!-- Hoare -->
<g id="node7" class="node">
<title>Hoare</title>
<g id="a_node7"><a xlink:href="Hoare.html" xlink:title="Go to chapter" target="_top">
<polygon fill="#add8e6" stroke="#000000" points="331.5,-738 222.5,-738 222.5,-696 331.5,-696 331.5,-738"/>
<text text-anchor="start" x="264.0642" y="-721.2" font-family="Times,serif" font-size="11.00" fill="#000000">Hoare</text>
<text text-anchor="start" x="240.8914" y="-705.8" font-family="Times,serif" font-size="9.00" fill="#000000">Hoare Logic (Part I)</text>
</a>
</g>
</g>
<!-- Preface&#45;&gt;Hoare -->
<g id="edge21" class="edge">
<title>Preface&#45;&gt;Hoare</title>
<path fill="none" stroke="#c0c0c0" d="M277,-773.8446C277,-766.201 277,-757.0809 277,-748.4075"/>
<polygon fill="#c0c0c0" stroke="#c0c0c0" points="280.5001,-748.1787 277,-738.1788 273.5001,-748.1788 280.5001,-748.1787"/>
</g>
<!-- Smallstep -->
<g id="node10" class="node">
<title>Smallstep</title>
<g id="a_node10"><a xlink:href="Smallstep.html" xlink:title="Go to chapter" target="_top">
<polygon fill="#add8e6" stroke="#000000" points="508.5,-738 349.5,-738 349.5,-696 508.5,-696 508.5,-738"/>
<text text-anchor="start" x="407.8062" y="-721.2" font-family="Times,serif" font-size="11.00" fill="#000000">Smallstep</text>
<text text-anchor="start" x="367.5129" y="-705.8" font-family="Times,serif" font-size="9.00" fill="#000000">Small&#45;Step Operational Semantics</text>
</a>
</g>
</g>
<!-- Preface&#45;&gt;Smallstep -->
<g id="edge19" class="edge">
<title>Preface&#45;&gt;Smallstep</title>
<path fill="none" stroke="#c0c0c0" d="M307.7595,-776.8226C327.6708,-766.998 354.0959,-753.9593 377.1928,-742.5628"/>
<polygon fill="#c0c0c0" stroke="#c0c0c0" points="378.7727,-745.6861 386.1917,-738.1225 375.6752,-739.4087 378.7727,-745.6861"/>
</g>
<!-- Postscript -->
<g id="node4" class="node">
<title>Postscript</title>
<g id="a_node4"><a xlink:href="Postscript.html" xlink:title="Go to chapter" target="_top">
<polygon fill="#add8e6" stroke="#000000" points="236.8942,-114 165.1058,-114 165.1058,-78 236.8942,-78 236.8942,-114"/>
<text text-anchor="middle" x="201" y="-92.7" font-family="Times,serif" font-size="11.00" fill="#000000">Postscript</text>
</a>
</g>
</g>
<!-- Bib -->
<g id="node5" class="node">
<title>Bib</title>
<g id="a_node5"><a xlink:href="Bib.html" xlink:title="Go to chapter" target="_top">
<polygon fill="#add8e6" stroke="#000000" points="242.5,-42 159.5,-42 159.5,0 242.5,0 242.5,-42"/>
<text text-anchor="start" x="193.5535" y="-25.2" font-family="Times,serif" font-size="11.00" fill="#000000">Bib</text>
<text text-anchor="start" x="177.752" y="-9.8" font-family="Times,serif" font-size="9.00" fill="#000000">Bibliography</text>
</a>
</g>
</g>
<!-- Postscript&#45;&gt;Bib -->
<g id="edge23" class="edge">
<title>Postscript&#45;&gt;Bib</title>
<path fill="none" stroke="#c0c0c0" d="M201,-77.8446C201,-70.201 201,-61.0809 201,-52.4075"/>
<polygon fill="#c0c0c0" stroke="#c0c0c0" points="204.5001,-52.1787 201,-42.1788 197.5001,-52.1788 204.5001,-52.1787"/>
</g>
<!-- Equiv&#45;&gt;Hoare -->
<g id="edge26" class="edge">
<title>Equiv&#45;&gt;Hoare</title>
<path fill="none" stroke="#0000ff" d="M204.6895,-717C207.2846,-717 209.8797,-717 212.4748,-717"/>
<polygon fill="#0000ff" stroke="#0000ff" points="212.4847,-720.5001 222.4846,-717 212.4846,-713.5001 212.4847,-720.5001"/>
</g>
<!-- PE -->
<g id="node20" class="node">
<title>PE</title>
<g id="a_node20"><a xlink:href="PE.html" xlink:title="Go to chapter" target="_top">
<polygon fill="#ffffe0" stroke="#000000" points="100,-660 0,-660 0,-618 100,-618 100,-660"/>
<text text-anchor="start" x="43.5815" y="-643.2" font-family="Times,serif" font-size="11.00" fill="#000000">PE</text>
<text text-anchor="start" x="17.6343" y="-627.8" font-family="Times,serif" font-size="9.00" fill="#000000">Partial Evaluation</text>
</a>
</g>
</g>
<!-- Equiv&#45;&gt;PE -->
<g id="edge18" class="edge">
<title>Equiv&#45;&gt;PE</title>
<path fill="none" stroke="#c0c0c0" d="M121.4798,-695.8921C110.1497,-686.8743 96.7724,-676.227 84.6729,-666.5968"/>
<polygon fill="#c0c0c0" stroke="#c0c0c0" points="86.5453,-663.6138 76.5414,-660.1248 82.186,-669.0908 86.5453,-663.6138"/>
</g>
<!-- Hoare2 -->
<g id="node8" class="node">
<title>Hoare2</title>
<g id="a_node8"><a xlink:href="Hoare2.html" xlink:title="Go to chapter" target="_top">
<polygon fill="#add8e6" stroke="#000000" points="368,-660 256,-660 256,-618 368,-618 368,-660"/>
<text text-anchor="start" x="295.8142" y="-643.2" font-family="Times,serif" font-size="11.00" fill="#000000">Hoare2</text>
<text text-anchor="start" x="273.8928" y="-627.8" font-family="Times,serif" font-size="9.00" fill="#000000">Hoare Logic (Part II)</text>
</a>
</g>
</g>
<!-- Hoare&#45;&gt;Hoare2 -->
<g id="edge1" class="edge">
<title>Hoare&#45;&gt;Hoare2</title>
<path fill="none" stroke="#c0c0c0" d="M280.4731,-695.6862C283.5103,-687.4508 287.6393,-677.8805 291.9632,-668.9746"/>
<polygon fill="#c0c0c0" stroke="#c0c0c0" points="295.1036,-670.5202 296.5019,-660.018 288.8596,-667.356 295.1036,-670.5202"/>
</g>
<!-- Hoare&#45;&gt;Hoare2 -->
<g id="edge27" class="edge">
<title>Hoare&#45;&gt;Hoare2</title>
<path fill="none" stroke="#0000ff" d="M292.6547,-695.6862C296.9166,-687.6241 301.2802,-678.2828 304.9038,-669.5379"/>
<polygon fill="#0000ff" stroke="#0000ff" points="308.2446,-670.6056 308.6358,-660.018 301.7274,-668.0508 308.2446,-670.6056"/>
</g>
<!-- HoareAsLogic -->
<g id="node9" class="node">
<title>HoareAsLogic</title>
<g id="a_node9"><a xlink:href="HoareAsLogic.html" xlink:title="Go to chapter" target="_top">
<polygon fill="#add8e6" stroke="#000000" points="238,-660 118,-660 118,-618 238,-618 238,-660"/>
<text text-anchor="start" x="145.623" y="-643.2" font-family="Times,serif" font-size="11.00" fill="#000000">HoareAsLogic</text>
<text text-anchor="start" x="135.7686" y="-627.8" font-family="Times,serif" font-size="9.00" fill="#000000">Hoare Logic as a Logic</text>
</a>
</g>
</g>
<!-- Hoare&#45;&gt;HoareAsLogic -->
<g id="edge7" class="edge">
<title>Hoare&#45;&gt;HoareAsLogic</title>
<path fill="none" stroke="#c0c0c0" d="M250.2092,-695.8921C238.6534,-686.7876 224.9896,-676.0221 212.6745,-666.3193"/>
<polygon fill="#c0c0c0" stroke="#c0c0c0" points="214.8332,-663.5643 204.8122,-660.1248 210.5011,-669.0628 214.8332,-663.5643"/>
</g>
<!-- Hoare2&#45;&gt;Smallstep -->
<g id="edge28" class="edge">
<title>Hoare2&#45;&gt;Smallstep</title>
<path fill="none" stroke="#0000ff" d="M343.6872,-660.1248C357.6072,-669.4048 374.1118,-680.4079 388.8778,-690.2518"/>
<polygon fill="#0000ff" stroke="#0000ff" points="387.0761,-693.2572 397.3381,-695.8921 390.9591,-687.4328 387.0761,-693.2572"/>
</g>
<!-- Types -->
<g id="node11" class="node">
<title>Types</title>
<g id="a_node11"><a xlink:href="Types.html" xlink:title="Go to chapter" target="_top">
<polygon fill="#add8e6" stroke="#000000" points="472,-660 386,-660 386,-618 472,-618 472,-660"/>
<text text-anchor="start" x="415.9429" y="-643.2" font-family="Times,serif" font-size="11.00" fill="#000000">Types</text>
<text text-anchor="start" x="403.9402" y="-627.8" font-family="Times,serif" font-size="9.00" fill="#000000">Type Systems</text>
</a>
</g>
</g>
<!-- Smallstep&#45;&gt;Types -->
<g id="edge2" class="edge">
<title>Smallstep&#45;&gt;Types</title>
<path fill="none" stroke="#c0c0c0" d="M422.9092,-695.6862C422.2787,-687.7975 422.1005,-678.684 422.3745,-670.1029"/>
<polygon fill="#c0c0c0" stroke="#c0c0c0" points="425.8746,-670.1963 422.9331,-660.018 418.8853,-669.8091 425.8746,-670.1963"/>
</g>
<!-- Smallstep&#45;&gt;Types -->
<g id="edge29" class="edge">
<title>Smallstep&#45;&gt;Types</title>
<path fill="none" stroke="#0000ff" d="M435.0908,-695.6862C435.7213,-687.7975 435.8995,-678.684 435.6255,-670.1029"/>
<polygon fill="#0000ff" stroke="#0000ff" points="439.1147,-669.8091 435.0669,-660.018 432.1254,-670.1963 439.1147,-669.8091"/>
</g>
<!-- Stlc -->
<g id="node12" class="node">
<title>Stlc</title>
<g id="a_node12"><a xlink:href="Stlc.html" xlink:title="Go to chapter" target="_top">
<polygon fill="#add8e6" stroke="#000000" points="360,-582 192,-582 192,-540 360,-540 360,-582"/>
<text text-anchor="start" x="267.4438" y="-565.2" font-family="Times,serif" font-size="11.00" fill="#000000">Stlc</text>
<text text-anchor="start" x="209.5327" y="-549.8" font-family="Times,serif" font-size="9.00" fill="#000000">The Simply Typed Lambda&#45;Calculus</text>
</a>
</g>
</g>
<!-- Types&#45;&gt;Stlc -->
<g id="edge3" class="edge">
<title>Types&#45;&gt;Stlc</title>
<path fill="none" stroke="#c0c0c0" d="M385.6749,-619.9191C365.1638,-609.9401 340.7594,-597.5828 320.1494,-586.7662"/>
<polygon fill="#c0c0c0" stroke="#c0c0c0" points="321.7509,-583.6539 311.2739,-582.0782 318.4815,-589.8436 321.7509,-583.6539"/>
</g>
<!-- Types&#45;&gt;Stlc -->
<g id="edge30" class="edge">
<title>Types&#45;&gt;Stlc</title>
<path fill="none" stroke="#0000ff" d="M393.6702,-617.8921C375.5718,-608.2673 353.1556,-596.7864 332.7331,-586.6669"/>
<polygon fill="#0000ff" stroke="#0000ff" points="334.03,-583.4042 323.5127,-582.1248 330.9366,-589.6836 334.03,-583.4042"/>
</g>
<!-- StlcProp -->
<g id="node13" class="node">
<title>StlcProp</title>
<g id="a_node13"><a xlink:href="StlcProp.html" xlink:title="Go to chapter" target="_top">
<polygon fill="#add8e6" stroke="#000000" points="274,-504 168,-504 168,-462 274,-462 274,-504"/>
<text text-anchor="start" x="202.0535" y="-487.2" font-family="Times,serif" font-size="11.00" fill="#000000">StlcProp</text>
<text text-anchor="start" x="185.7537" y="-471.8" font-family="Times,serif" font-size="9.00" fill="#000000">Properties of STLC</text>
</a>
</g>
</g>
<!-- Stlc&#45;&gt;StlcProp -->
<g id="edge4" class="edge">
<title>Stlc&#45;&gt;StlcProp</title>
<path fill="none" stroke="#c0c0c0" d="M254.8802,-539.6862C248.3469,-531.3641 241.3558,-521.6789 235.3616,-512.6936"/>
<polygon fill="#c0c0c0" stroke="#c0c0c0" points="238.1216,-510.5161 229.7535,-504.018 232.2429,-514.3162 238.1216,-510.5161"/>
</g>
<!-- Stlc&#45;&gt;StlcProp -->
<g id="edge31" class="edge">
<title>Stlc&#45;&gt;StlcProp</title>
<path fill="none" stroke="#0000ff" d="M267.0618,-539.6862C261.7504,-531.1907 254.9128,-521.2747 248.0966,-512.1329"/>
<polygon fill="#0000ff" stroke="#0000ff" points="250.7438,-509.8329 241.8873,-504.018 245.1846,-514.0867 250.7438,-509.8329"/>
</g>
<!-- Typechecking -->
<g id="node15" class="node">
<title>Typechecking</title>
<g id="a_node15"><a xlink:href="Typechecking.html" xlink:title="Go to chapter" target="_top">
<polygon fill="#add8e6" stroke="#000000" points="604,-348 478,-348 478,-306 604,-306 604,-348"/>
<text text-anchor="start" x="510.2317" y="-331.2" font-family="Times,serif" font-size="11.00" fill="#000000">Typechecking</text>
<text text-anchor="start" x="495.532" y="-315.8" font-family="Times,serif" font-size="9.00" fill="#000000">A Typechecker for STLC</text>
</a>
</g>
</g>
<!-- Stlc&#45;&gt;Typechecking -->
<g id="edge11" class="edge">
<title>Stlc&#45;&gt;Typechecking</title>
<path fill="none" stroke="#c0c0c0" d="M283.4552,-539.9514C299.2814,-496.3731 336.9952,-398.4565 364,-376 398.8143,-347.0493 419.7509,-359.1842 467.8199,-348.0724"/>
<polygon fill="#c0c0c0" stroke="#c0c0c0" points="468.985,-351.3872 477.8076,-345.521 467.2524,-344.605 468.985,-351.3872"/>
</g>
<!-- UseTactics -->
<g id="node23" class="node">
<title>UseTactics</title>
<g id="a_node23"><a xlink:href="UseTactics.html" xlink:title="Go to chapter" target="_top">
<polygon fill="#ffffe0" stroke="#000000" points="576,-504 376,-504 376,-462 576,-462 576,-504"/>
<text text-anchor="start" x="451.9509" y="-487.2" font-family="Times,serif" font-size="11.00" fill="#000000">UseTactics</text>
<text text-anchor="start" x="393.8333" y="-471.8" font-family="Times,serif" font-size="9.00" fill="#000000">Tactic Library for Coq: A Gentle Introduction</text>
</a>
</g>
</g>
<!-- Stlc&#45;&gt;UseTactics -->
<g id="edge17" class="edge">
<title>Stlc&#45;&gt;UseTactics</title>
<path fill="none" stroke="#c0c0c0" d="M329.8594,-539.9948C355.311,-530.0687 385.87,-518.1507 412.449,-507.7849"/>
<polygon fill="#c0c0c0" stroke="#c0c0c0" points="413.9996,-510.937 422.0444,-504.0427 411.4561,-504.4154 413.9996,-510.937"/>
</g>
<!-- MoreStlc -->
<g id="node14" class="node">
<title>MoreStlc</title>
<g id="a_node14"><a xlink:href="MoreStlc.html" xlink:title="Go to chapter" target="_top">
<polygon fill="#add8e6" stroke="#000000" points="320,-426 122,-426 122,-384 320,-384 320,-426"/>
<text text-anchor="start" x="200.5308" y="-409.2" font-family="Times,serif" font-size="11.00" fill="#000000">MoreStlc</text>
<text text-anchor="start" x="139.5342" y="-393.8" font-family="Times,serif" font-size="9.00" fill="#000000">More on the Simply Typed Lambda&#45;Calculus</text>
</a>
</g>
</g>
<!-- StlcProp&#45;&gt;MoreStlc -->
<g id="edge5" class="edge">
<title>StlcProp&#45;&gt;MoreStlc</title>
<path fill="none" stroke="#c0c0c0" d="M214.9092,-461.6862C214.2787,-453.7975 214.1005,-444.684 214.3745,-436.1029"/>
<polygon fill="#c0c0c0" stroke="#c0c0c0" points="217.8746,-436.1963 214.9331,-426.018 210.8853,-435.8091 217.8746,-436.1963"/>
</g>
<!-- StlcProp&#45;&gt;MoreStlc -->
<g id="edge32" class="edge">
<title>StlcProp&#45;&gt;MoreStlc</title>
<path fill="none" stroke="#0000ff" d="M227.0908,-461.6862C227.7213,-453.7975 227.8995,-444.684 227.6255,-436.1029"/>
<polygon fill="#0000ff" stroke="#0000ff" points="231.1147,-435.8091 227.0669,-426.018 224.1254,-436.1963 231.1147,-435.8091"/>
</g>
<!-- MoreStlc&#45;&gt;Typechecking -->
<g id="edge33" class="edge">
<title>MoreStlc&#45;&gt;Typechecking</title>
<path fill="none" stroke="#0000ff" d="M301.1366,-383.9414C312.1582,-381.1893 323.3457,-378.4706 334,-376 390.6618,-362.8608 407.8178,-362.7835 467.846,-348.1933"/>
<polygon fill="#0000ff" stroke="#0000ff" points="468.9902,-351.516 477.8609,-345.7228 467.3136,-344.7198 468.9902,-351.516"/>
</g>
<!-- References -->
<g id="node16" class="node">
<title>References</title>
<g id="a_node16"><a xlink:href="References.html" xlink:title="Go to chapter" target="_top">
<polygon fill="#add8e6" stroke="#000000" points="135.5,-348 .5,-348 .5,-306 135.5,-306 135.5,-348"/>
<text text-anchor="start" x="44.0723" y="-331.2" font-family="Times,serif" font-size="11.00" fill="#000000">References</text>
<text text-anchor="start" x="18.5825" y="-315.8" font-family="Times,serif" font-size="9.00" fill="#000000">Typing Mutable References</text>
</a>
</g>
</g>
<!-- MoreStlc&#45;&gt;References -->
<g id="edge6" class="edge">
<title>MoreStlc&#45;&gt;References</title>
<path fill="none" stroke="#c0c0c0" d="M179.596,-383.8921C160.7166,-374.2673 138.1963,-362.7864 118.3466,-352.6669"/>
<polygon fill="#c0c0c0" stroke="#c0c0c0" points="119.9358,-349.5485 109.4371,-348.1248 116.7565,-355.7849 119.9358,-349.5485"/>
</g>
<!-- Sub -->
<g id="node17" class="node">
<title>Sub</title>
<g id="a_node17"><a xlink:href="Sub.html" xlink:title="Go to chapter" target="_top">
<polygon fill="#add8e6" stroke="#000000" points="200.5,-270 127.5,-270 127.5,-228 200.5,-228 200.5,-270"/>
<text text-anchor="start" x="155.9412" y="-253.2" font-family="Times,serif" font-size="11.00" fill="#000000">Sub</text>
<text text-anchor="start" x="145.9968" y="-237.8" font-family="Times,serif" font-size="9.00" fill="#000000">Subtyping</text>
</a>
</g>
</g>
<!-- MoreStlc&#45;&gt;Sub -->
<g id="edge10" class="edge">
<title>MoreStlc&#45;&gt;Sub</title>
<path fill="none" stroke="#c0c0c0" d="M204.0284,-383.9583C196.5225,-373.6667 188.23,-360.7665 183,-348 174.1145,-326.3102 169.3258,-300.2188 166.7794,-280.2677"/>
<polygon fill="#c0c0c0" stroke="#c0c0c0" points="170.2371,-279.6993 165.6129,-270.1669 163.2833,-280.5024 170.2371,-279.6993"/>
</g>
<!-- Records -->
<g id="node18" class="node">
<title>Records</title>
<g id="a_node18"><a xlink:href="Records.html" xlink:title="Go to chapter" target="_top">
<polygon fill="#add8e6" stroke="#000000" points="320,-348 192,-348 192,-306 320,-306 320,-348"/>
<text text-anchor="start" x="237.9773" y="-331.2" font-family="Times,serif" font-size="11.00" fill="#000000">Records</text>
<text text-anchor="start" x="209.8772" y="-315.8" font-family="Times,serif" font-size="9.00" fill="#000000">Adding Records to STLC</text>
</a>
</g>
</g>
<!-- MoreStlc&#45;&gt;Records -->
<g id="edge8" class="edge">
<title>MoreStlc&#45;&gt;Records</title>
<path fill="none" stroke="#c0c0c0" d="M230.5639,-383.6862C234.2204,-375.5374 238.4633,-366.0818 242.4236,-357.256"/>
<polygon fill="#c0c0c0" stroke="#c0c0c0" points="245.6681,-358.5745 246.5688,-348.018 239.2816,-355.7087 245.6681,-358.5745"/>
</g>
<!-- Norm -->
<g id="node21" class="node">
<title>Norm</title>
<g id="a_node21"><a xlink:href="Norm.html" xlink:title="Go to chapter" target="_top">
<polygon fill="#ffffe0" stroke="#000000" points="459.5,-348 338.5,-348 338.5,-306 459.5,-306 459.5,-348"/>
<text text-anchor="start" x="386.6685" y="-331.2" font-family="Times,serif" font-size="11.00" fill="#000000">Norm</text>
<text text-anchor="start" x="356.5083" y="-315.8" font-family="Times,serif" font-size="9.00" fill="#000000">Normalization of STLC</text>
</a>
</g>
</g>
<!-- MoreStlc&#45;&gt;Norm -->
<g id="edge13" class="edge">
<title>MoreStlc&#45;&gt;Norm</title>
<path fill="none" stroke="#c0c0c0" d="M269.1694,-383.8921C291.4304,-374.1372 318.0426,-362.4757 341.3613,-352.2574"/>
<polygon fill="#c0c0c0" stroke="#c0c0c0" points="343.0377,-355.3442 350.7921,-348.1248 340.2281,-348.9327 343.0377,-355.3442"/>
</g>
<!-- Typechecking&#45;&gt;References -->
<g id="edge34" class="edge">
<title>Typechecking&#45;&gt;References</title>
<path fill="none" stroke="#0000ff" d="M500.8571,-348.1739C488.1444,-353.8227 473.8016,-359.1457 460,-362 401.6786,-374.0614 250.993,-370.1661 192,-362 174.7742,-359.6155 156.5751,-355.4515 139.5826,-350.8087"/>
<polygon fill="#0000ff" stroke="#0000ff" points="140.3082,-347.3769 129.7335,-348.0296 138.4072,-354.1138 140.3082,-347.3769"/>
</g>
<!-- References&#45;&gt;Sub -->
<g id="edge35" class="edge">
<title>References&#45;&gt;Sub</title>
<path fill="none" stroke="#0000ff" d="M93.979,-305.8921C105.0778,-296.8743 118.1821,-286.227 130.0347,-276.5968"/>
<polygon fill="#0000ff" stroke="#0000ff" points="132.4462,-279.1472 138.0003,-270.1248 128.032,-273.7143 132.4462,-279.1472"/>
</g>
<!-- Sub&#45;&gt;Records -->
<g id="edge36" class="edge">
<title>Sub&#45;&gt;Records</title>
<path fill="none" stroke="#0000ff" d="M188.7905,-270.018C199.2807,-278.9119 211.6549,-289.4031 222.9079,-298.9436"/>
<polygon fill="#0000ff" stroke="#0000ff" points="220.9696,-301.8889 230.8606,-305.6862 225.4964,-296.5496 220.9696,-301.8889"/>
</g>
<!-- RecordSub -->
<g id="node19" class="node">
<title>RecordSub</title>
<g id="a_node19"><a xlink:href="RecordSub.html" xlink:title="Go to chapter" target="_top">
<polygon fill="#add8e6" stroke="#000000" points="262,-192 140,-192 140,-150 262,-150 262,-192"/>
<text text-anchor="start" x="176.5588" y="-175.2" font-family="Times,serif" font-size="11.00" fill="#000000">RecordSub</text>
<text text-anchor="start" x="157.5007" y="-159.8" font-family="Times,serif" font-size="9.00" fill="#000000">Subtyping with Records</text>
</a>
</g>
</g>
<!-- Sub&#45;&gt;RecordSub -->
<g id="edge12" class="edge">
<title>Sub&#45;&gt;RecordSub</title>
<path fill="none" stroke="#c0c0c0" d="M174.1104,-227.6862C177.9758,-219.5374 182.4612,-210.0818 186.6478,-201.256"/>
<polygon fill="#c0c0c0" stroke="#c0c0c0" points="189.9063,-202.5531 191.0299,-192.018 183.5818,-199.553 189.9063,-202.5531"/>
</g>
<!-- Records&#45;&gt;RecordSub -->
<g id="edge9" class="edge">
<title>Records&#45;&gt;RecordSub</title>
<path fill="none" stroke="#c0c0c0" d="M243.7939,-305.9611C232.0176,-279.2114 215.4157,-232.8091 206.4156,-202.0024"/>
<polygon fill="#c0c0c0" stroke="#c0c0c0" points="209.7388,-200.8901 203.6727,-192.2037 202.9979,-202.7771 209.7388,-200.8901"/>
</g>
<!-- Records&#45;&gt;RecordSub -->
<g id="edge37" class="edge">
<title>Records&#45;&gt;RecordSub</title>
<path fill="none" stroke="#0000ff" d="M253.371,-305.9611C246.2545,-279.0951 230.0273,-232.4052 217.2793,-201.6015"/>
<polygon fill="#0000ff" stroke="#0000ff" points="220.416,-200.0337 213.2786,-192.2037 213.9753,-202.7757 220.416,-200.0337"/>
</g>
<!-- RecordSub&#45;&gt;Postscript -->
<g id="edge38" class="edge">
<title>RecordSub&#45;&gt;Postscript</title>
<path fill="none" stroke="#0000ff" d="M201,-149.7086C201,-141.7915 201,-132.6809 201,-124.2383"/>
<polygon fill="#0000ff" stroke="#0000ff" points="204.5001,-124.0419 201,-114.0419 197.5001,-124.0419 204.5001,-124.0419"/>
</g>
<!-- LibTactics -->
<g id="node22" class="node">
<title>LibTactics</title>
<g id="a_node22"><a xlink:href="LibTactics.html" xlink:title="Go to chapter" target="_top">
<polygon fill="none" stroke="#000000" stroke-dasharray="1,5" points="554.2671,-579 479.7329,-579 479.7329,-543 554.2671,-543 554.2671,-579"/>
<text text-anchor="middle" x="517" y="-557.7" font-family="Times,serif" font-size="11.00" fill="#000000">LibTactics</text>
</a>
</g>
</g>
<!-- LibTactics&#45;&gt;UseTactics -->
<g id="edge14" class="edge">
<title>LibTactics&#45;&gt;UseTactics</title>
<path fill="none" stroke="#c0c0c0" d="M507.4907,-542.9092C502.8179,-534.0195 497.0635,-523.072 491.7575,-512.9777"/>
<polygon fill="#c0c0c0" stroke="#c0c0c0" points="494.8056,-511.254 487.0547,-504.0308 488.6094,-514.511 494.8056,-511.254"/>
</g>
<!-- UseAuto -->
<g id="node24" class="node">
<title>UseAuto</title>
<g id="a_node24"><a xlink:href="UseAuto.html" xlink:title="Go to chapter" target="_top">
<polygon fill="#ffffe0" stroke="#000000" points="593.5,-426 378.5,-426 378.5,-384 593.5,-384 593.5,-426"/>
<text text-anchor="start" x="466.9465" y="-409.2" font-family="Times,serif" font-size="11.00" fill="#000000">UseAuto</text>
<text text-anchor="start" x="396.8889" y="-393.8" font-family="Times,serif" font-size="9.00" fill="#000000">Theory and Practice of Automation in Coq Proofs</text>
</a>
</g>
</g>
<!-- LibTactics&#45;&gt;UseAuto -->
<g id="edge15" class="edge">
<title>LibTactics&#45;&gt;UseAuto</title>
<path fill="none" stroke="#c0c0c0" d="M549.3446,-542.7831C563.0262,-533.1864 577.5092,-520.0535 585,-504 592.8932,-487.0843 594.343,-478.1602 585,-462 577.6605,-449.3051 566.3024,-439.1886 553.8592,-431.2199"/>
<polygon fill="#c0c0c0" stroke="#c0c0c0" points="555.4959,-428.1216 545.1073,-426.0411 551.931,-434.1459 555.4959,-428.1216"/>
</g>
<!-- UseTactics&#45;&gt;UseAuto -->
<g id="edge16" class="edge">
<title>UseTactics&#45;&gt;UseAuto</title>
<path fill="none" stroke="#c0c0c0" d="M478.7325,-461.6862C479.7439,-453.7975 480.9123,-444.684 482.0124,-436.1029"/>
<polygon fill="#c0c0c0" stroke="#c0c0c0" points="485.5052,-436.3819 483.3054,-426.018 478.5621,-435.4917 485.5052,-436.3819"/>
</g>
</g>
</svg>
