<?xml version="1.0" encoding="UTF-8" standalone="no"?>
<?xml-stylesheet href="common/css/sf.css" type="text/css"?>
<!DOCTYPE svg PUBLIC "-//W3C//DTD SVG 1.1//EN"
 "http://www.w3.org/Graphics/SVG/1.1/DTD/svg11.dtd">
<!-- Generated by graphviz version 2.43.0 (0)
 -->
<!-- Pages: 1 -->
<svg width="291pt" height="1415pt"
 viewBox="21.60 21.60 269.60 1393.60" xmlns="http://www.w3.org/2000/svg" xmlns:xlink="http://www.w3.org/1999/xlink">
<g id="graph0" class="graph deps" transform="scale(1 1) rotate(0) translate(25.6 1389.6)">
<polygon fill="white" stroke="transparent" points="-4,4 -4,-1368 244,-1368 244,4 -4,4"/>
<g id="clust1" class="cluster deps">
<title>cluster_0</title>
<polygon fill="none" stroke="black" points="8,-8 8,-1356 232,-1356 232,-8 8,-8"/>
</g>
<g id="clust2" class="cluster deps">
<title>cluster_4</title>
<polygon fill="none" stroke="black" points="50,-16 50,-181 190,-181 190,-16 50,-16"/>
<text text-anchor="start" x="153" y="-166.8" font-family="Times,serif" font-weight="bold" font-size="14.00">END</text>
</g>
<g id="clust3" class="cluster deps">
<title>cluster_3</title>
<polygon fill="none" stroke="black" points="40,-189 40,-435 200,-435 200,-189 40,-189"/>
<text text-anchor="start" x="155" y="-420.8" font-family="Times,serif" font-weight="bold" font-size="14.00">FULL</text>
</g>
<g id="clust4" class="cluster deps">
<title>cluster_2</title>
<polygon fill="none" stroke="black" points="16,-443 16,-770 224,-770 224,-443 16,-443"/>
<text text-anchor="start" x="155" y="-755.8" font-family="Times,serif" font-weight="bold" font-size="14.00">MEDIUM</text>
</g>
<g id="clust5" class="cluster deps">
<title>cluster_1</title>
<polygon fill="none" stroke="black" points="22,-778 22,-1348 218,-1348 218,-778 22,-778"/>
<text text-anchor="start" x="161" y="-1333.8" font-family="Times,serif" font-weight="bold" font-size="14.00">SHORT</text>
</g>
<!-- Preface -->
<g id="node1" class="node">
<title>Preface</title>
<g id="a_node1"><a xlink:href="Preface.html" xlink:title="Go to chapter" target="_top">
<polygon fill="lightblue" stroke="black" points="195.5,-1317 44.5,-1317 44.5,-1272 195.5,-1272 195.5,-1317"/>
<text text-anchor="start" x="97" y="-1299.7" font-family="Times,serif" font-size="11.00"> &#160;Preface &#160;</text>
<text text-anchor="start" x="63" y="-1282.5" font-family="Times,serif" font-size="10.00"> &#160;Introduction to the course &#160;</text>
</a>
</g>
</g>
<!-- Basic -->
<g id="node2" class="node">
<title>Basic</title>
<g id="a_node2"><a xlink:href="Basic.html" xlink:title="Go to chapter" target="_top">
<polygon fill="lightblue" stroke="black" points="209.5,-1236 30.5,-1236 30.5,-1191 209.5,-1191 209.5,-1236"/>
<text text-anchor="start" x="101.5" y="-1218.7" font-family="Times,serif" font-size="11.00"> &#160;Basic &#160;</text>
<text text-anchor="start" x="49" y="-1201.5" font-family="Times,serif" font-size="10.00"> &#160;Key features of Separation Logic &#160;</text>
</a>
</g>
</g>
<!-- Preface&#45;&gt;Basic -->
<g id="edge7" class="edge">
<title>Preface&#45;&gt;Basic</title>
<path fill="none" stroke="blue" d="M120,-1271.91C120,-1263.99 120,-1254.84 120,-1246.21"/>
<polygon fill="blue" stroke="blue" points="123.5,-1246.06 120,-1236.06 116.5,-1246.06 123.5,-1246.06"/>
</g>
<!-- Repr -->
<g id="node3" class="node">
<title>Repr</title>
<g id="a_node3"><a xlink:href="Repr.html" xlink:title="Go to chapter" target="_top">
<polygon fill="lightblue" stroke="black" points="195.5,-1155 44.5,-1155 44.5,-1110 195.5,-1110 195.5,-1155"/>
<text text-anchor="start" x="103.5" y="-1137.7" font-family="Times,serif" font-size="11.00"> &#160;Repr &#160;</text>
<text text-anchor="start" x="63" y="-1120.5" font-family="Times,serif" font-size="10.00"> &#160;Representation predicates &#160;</text>
</a>
</g>
</g>
<!-- Basic&#45;&gt;Repr -->
<g id="edge8" class="edge">
<title>Basic&#45;&gt;Repr</title>
<path fill="none" stroke="blue" d="M120,-1190.91C120,-1182.99 120,-1173.84 120,-1165.21"/>
<polygon fill="blue" stroke="blue" points="123.5,-1165.06 120,-1155.06 116.5,-1165.06 123.5,-1165.06"/>
</g>
<!-- Hprop -->
<g id="node4" class="node">
<title>Hprop</title>
<g id="a_node4"><a xlink:href="Hprop.html" xlink:title="Go to chapter" target="_top">
<polygon fill="lightblue" stroke="black" points="175.5,-1074 64.5,-1074 64.5,-1029 175.5,-1029 175.5,-1074"/>
<text text-anchor="start" x="100.5" y="-1056.7" font-family="Times,serif" font-size="11.00"> &#160;Hprop &#160;</text>
<text text-anchor="start" x="83" y="-1039.5" font-family="Times,serif" font-size="10.00"> &#160;Heap predicates &#160;</text>
</a>
</g>
</g>
<!-- Repr&#45;&gt;Hprop -->
<g id="edge9" class="edge">
<title>Repr&#45;&gt;Hprop</title>
<path fill="none" stroke="blue" d="M120,-1109.91C120,-1101.99 120,-1092.84 120,-1084.21"/>
<polygon fill="blue" stroke="blue" points="123.5,-1084.06 120,-1074.06 116.5,-1084.06 123.5,-1084.06"/>
</g>
<!-- Himpl -->
<g id="node5" class="node">
<title>Himpl</title>
<g id="a_node5"><a xlink:href="Himpl.html" xlink:title="Go to chapter" target="_top">
<polygon fill="lightblue" stroke="black" points="176.5,-993 63.5,-993 63.5,-948 176.5,-948 176.5,-993"/>
<text text-anchor="start" x="100.5" y="-975.7" font-family="Times,serif" font-size="11.00"> &#160;Himpl &#160;</text>
<text text-anchor="start" x="82" y="-958.5" font-family="Times,serif" font-size="10.00"> &#160;Heap entailment &#160;</text>
</a>
</g>
</g>
<!-- Hprop&#45;&gt;Himpl -->
<g id="edge10" class="edge">
<title>Hprop&#45;&gt;Himpl</title>
<path fill="none" stroke="blue" d="M120,-1028.91C120,-1020.99 120,-1011.84 120,-1003.21"/>
<polygon fill="blue" stroke="blue" points="123.5,-1003.06 120,-993.06 116.5,-1003.06 123.5,-1003.06"/>
</g>
<!-- Triples -->
<g id="node6" class="node">
<title>Triples</title>
<g id="a_node6"><a xlink:href="Triples.html" xlink:title="Go to chapter" target="_top">
<polygon fill="lightblue" stroke="black" points="176.5,-912 63.5,-912 63.5,-867 176.5,-867 176.5,-912"/>
<text text-anchor="start" x="98.5" y="-894.7" font-family="Times,serif" font-size="11.00"> &#160;Triples &#160;</text>
<text text-anchor="start" x="82" y="-877.5" font-family="Times,serif" font-size="10.00"> &#160;Heap entailment &#160;</text>
</a>
</g>
</g>
<!-- Himpl&#45;&gt;Triples -->
<g id="edge11" class="edge">
<title>Himpl&#45;&gt;Triples</title>
<path fill="none" stroke="blue" d="M120,-947.91C120,-939.99 120,-930.84 120,-922.21"/>
<polygon fill="blue" stroke="blue" points="123.5,-922.06 120,-912.06 116.5,-922.06 123.5,-922.06"/>
</g>
<!-- Rules -->
<g id="node7" class="node">
<title>Rules</title>
<g id="a_node7"><a xlink:href="Rules.html" xlink:title="Go to chapter" target="_top">
<polygon fill="lightblue" stroke="black" points="175.5,-831 64.5,-831 64.5,-786 175.5,-786 175.5,-831"/>
<text text-anchor="start" x="101.5" y="-813.7" font-family="Times,serif" font-size="11.00"> &#160;Rules &#160;</text>
<text text-anchor="start" x="83" y="-796.5" font-family="Times,serif" font-size="10.00"> &#160;Reasoning rules &#160;</text>
</a>
</g>
</g>
<!-- Triples&#45;&gt;Rules -->
<g id="edge12" class="edge">
<title>Triples&#45;&gt;Rules</title>
<path fill="none" stroke="blue" d="M120,-866.91C120,-858.99 120,-849.84 120,-841.21"/>
<polygon fill="blue" stroke="blue" points="123.5,-841.06 120,-831.06 116.5,-841.06 123.5,-841.06"/>
</g>
<!-- Wand -->
<g id="node8" class="node">
<title>Wand</title>
<g id="a_node8"><a xlink:href="Wand.html" xlink:title="Go to chapter" target="_top">
<polygon fill="lightblue" stroke="black" points="208.5,-739 31.5,-739 31.5,-694 208.5,-694 208.5,-739"/>
<text text-anchor="start" x="102" y="-721.7" font-family="Times,serif" font-size="11.00"> &#160;Wand &#160;</text>
<text text-anchor="start" x="50" y="-704.5" font-family="Times,serif" font-size="10.00"> &#160;Magic wand and other operators &#160;</text>
</a>
</g>
</g>
<!-- Rules&#45;&gt;Wand -->
<g id="edge13" class="edge">
<title>Rules&#45;&gt;Wand</title>
<path fill="none" stroke="blue" d="M120,-785.71C120,-774.77 120,-761.3 120,-749.23"/>
<polygon fill="blue" stroke="blue" points="123.5,-749.09 120,-739.09 116.5,-749.09 123.5,-749.09"/>
</g>
<!-- WPsem -->
<g id="node9" class="node">
<title>WPsem</title>
<g id="a_node9"><a xlink:href="WPsem.html" xlink:title="Go to chapter" target="_top">
<polygon fill="lightblue" stroke="black" points="215.5,-658 24.5,-658 24.5,-613 215.5,-613 215.5,-658"/>
<text text-anchor="start" x="97" y="-640.7" font-family="Times,serif" font-size="11.00"> &#160;WPsem &#160;</text>
<text text-anchor="start" x="43" y="-623.5" font-family="Times,serif" font-size="10.00"> &#160;Semantics of weakest preconditions &#160;</text>
</a>
</g>
</g>
<!-- Wand&#45;&gt;WPsem -->
<g id="edge4" class="edge">
<title>Wand&#45;&gt;WPsem</title>
<path fill="none" stroke="blue" d="M120,-693.91C120,-685.99 120,-676.84 120,-668.21"/>
<polygon fill="blue" stroke="blue" points="123.5,-668.06 120,-658.06 116.5,-668.06 123.5,-668.06"/>
</g>
<!-- WPgen -->
<g id="node10" class="node">
<title>WPgen</title>
<g id="a_node10"><a xlink:href="WPgen.html" xlink:title="Go to chapter" target="_top">
<polygon fill="lightblue" stroke="black" points="207.5,-577 32.5,-577 32.5,-532 207.5,-532 207.5,-577"/>
<text text-anchor="start" x="98" y="-559.7" font-family="Times,serif" font-size="11.00"> &#160;WPgen &#160;</text>
<text text-anchor="start" x="51" y="-542.5" font-family="Times,serif" font-size="10.00"> &#160;Weakest precondition generator &#160;</text>
</a>
</g>
</g>
<!-- WPsem&#45;&gt;WPgen -->
<g id="edge5" class="edge">
<title>WPsem&#45;&gt;WPgen</title>
<path fill="none" stroke="blue" d="M120,-612.91C120,-604.99 120,-595.84 120,-587.21"/>
<polygon fill="blue" stroke="blue" points="123.5,-587.06 120,-577.06 116.5,-587.06 123.5,-587.06"/>
</g>
<!-- WPsound -->
<g id="node11" class="node">
<title>WPsound</title>
<g id="a_node11"><a xlink:href="WPsound.html" xlink:title="Go to chapter" target="_top">
<polygon fill="lightblue" stroke="black" points="206,-496 34,-496 34,-451 206,-451 206,-496"/>
<text text-anchor="start" x="92.5" y="-478.7" font-family="Times,serif" font-size="11.00"> &#160;WPsound &#160;</text>
<text text-anchor="start" x="52" y="-461.5" font-family="Times,serif" font-size="10.00"> &#160;Soundness of the WP generator &#160;</text>
</a>
</g>
</g>
<!-- WPgen&#45;&gt;WPsound -->
<g id="edge6" class="edge">
<title>WPgen&#45;&gt;WPsound</title>
<path fill="none" stroke="blue" d="M120,-531.91C120,-523.99 120,-514.84 120,-506.21"/>
<polygon fill="blue" stroke="blue" points="123.5,-506.06 120,-496.06 116.5,-506.06 123.5,-506.06"/>
</g>
<!-- Affine -->
<g id="node12" class="node">
<title>Affine</title>
<g id="a_node12"><a xlink:href="Affine.html" xlink:title="Go to chapter" target="_top">
<polygon fill="lightblue" stroke="black" points="191.5,-404 48.5,-404 48.5,-359 191.5,-359 191.5,-404"/>
<text text-anchor="start" x="100.5" y="-386.7" font-family="Times,serif" font-size="11.00"> &#160;Affine &#160;</text>
<text text-anchor="start" x="67" y="-369.5" font-family="Times,serif" font-size="10.00"> &#160;Affine Separation Logic &#160;</text>
</a>
</g>
</g>
<!-- WPsound&#45;&gt;Affine -->
<g id="edge14" class="edge">
<title>WPsound&#45;&gt;Affine</title>
<path fill="none" stroke="blue" d="M120,-450.71C120,-439.77 120,-426.3 120,-414.23"/>
<polygon fill="blue" stroke="blue" points="123.5,-414.09 120,-404.09 116.5,-414.09 123.5,-414.09"/>
</g>
<!-- Arrays -->
<g id="node13" class="node">
<title>Arrays</title>
<g id="a_node13"><a xlink:href="Array.html" xlink:title="Go to chapter" target="_top">
<polygon fill="lightblue" stroke="black" points="159,-323 81,-323 81,-278 159,-278 159,-323"/>
<text text-anchor="start" x="99" y="-305.7" font-family="Times,serif" font-size="11.00"> &#160;Arrays &#160;</text>
<text text-anchor="start" x="102" y="-288.5" font-family="Times,serif" font-size="10.00"> &#160;Arrays &#160;</text>
</a>
</g>
</g>
<!-- Affine&#45;&gt;Arrays -->
<g id="edge2" class="edge">
<title>Affine&#45;&gt;Arrays</title>
<path fill="none" stroke="blue" d="M120,-358.91C120,-350.99 120,-341.84 120,-333.21"/>
<polygon fill="blue" stroke="blue" points="123.5,-333.06 120,-323.06 116.5,-333.06 123.5,-333.06"/>
</g>
<!-- Records -->
<g id="node14" class="node">
<title>Records</title>
<g id="a_node14"><a xlink:href="Records.html" xlink:title="Go to chapter" target="_top">
<polygon fill="lightblue" stroke="black" points="162.5,-242 77.5,-242 77.5,-197 162.5,-197 162.5,-242"/>
<text text-anchor="start" x="96" y="-224.7" font-family="Times,serif" font-size="11.00"> &#160;Records &#160;</text>
<text text-anchor="start" x="99" y="-207.5" font-family="Times,serif" font-size="10.00"> &#160;Records &#160;</text>
</a>
</g>
</g>
<!-- Arrays&#45;&gt;Records -->
<g id="edge3" class="edge">
<title>Arrays&#45;&gt;Records</title>
<path fill="none" stroke="blue" d="M120,-277.91C120,-269.99 120,-260.84 120,-252.21"/>
<polygon fill="blue" stroke="blue" points="123.5,-252.06 120,-242.06 116.5,-252.06 123.5,-252.06"/>
</g>
<!-- Postscript -->
<g id="node15" class="node">
<title>Postscript</title>
<g id="a_node15"><a xlink:href="Postscript.html" xlink:title="Go to chapter" target="_top">
<polygon fill="lightblue" stroke="black" points="182,-150 58,-150 58,-105 182,-105 182,-150"/>
<text text-anchor="start" x="92" y="-132.7" font-family="Times,serif" font-size="11.00"> &#160;Postscript &#160;</text>
<text text-anchor="start" x="76" y="-115.5" font-family="Times,serif" font-size="10.00"> &#160;Beyond this course &#160;</text>
</a>
</g>
</g>
<!-- Records&#45;&gt;Postscript -->
<g id="edge15" class="edge">
<title>Records&#45;&gt;Postscript</title>
<path fill="none" stroke="blue" d="M120,-196.71C120,-185.77 120,-172.3 120,-160.23"/>
<polygon fill="blue" stroke="blue" points="123.5,-160.09 120,-150.09 116.5,-160.09 123.5,-160.09"/>
</g>
<!-- Bib -->
<g id="node16" class="node">
<title>Bib</title>
<g id="a_node16"><a xlink:href="Bib.html" xlink:title="Go to chapter" target="_top">
<polygon fill="lightblue" stroke="black" points="170,-69 70,-69 70,-24 170,-24 170,-69"/>
<text text-anchor="start" x="106" y="-51.7" font-family="Times,serif" font-size="11.00"> &#160;Bib &#160;</text>
<text text-anchor="start" x="88" y="-34.5" font-family="Times,serif" font-size="10.00"> &#160;Bibliography &#160;</text>
</a>
</g>
</g>
<!-- Postscript&#45;&gt;Bib -->
<g id="edge1" class="edge">
<title>Postscript&#45;&gt;Bib</title>
<path fill="none" stroke="blue" d="M120,-104.91C120,-96.99 120,-87.84 120,-79.21"/>
<polygon fill="blue" stroke="blue" points="123.5,-79.06 120,-69.06 116.5,-79.06 123.5,-79.06"/>
</g>
</g>
</svg>
