<?xml version="1.0" encoding="UTF-8" standalone="no"?>
<?xml-stylesheet href="common/css/sf.css" type="text/css"?>
<!DOCTYPE svg PUBLIC "-//W3C//DTD SVG 1.1//EN"
 "http://www.w3.org/Graphics/SVG/1.1/DTD/svg11.dtd">
<!-- Generated by graphviz version 2.38.0 (20140413.2041)
 -->
<!-- Pages: 1 -->
<svg width="691pt" height="802pt"
 viewBox="21.60 21.60 669.60 780.60" xmlns="http://www.w3.org/2000/svg" xmlns:xlink="http://www.w3.org/1999/xlink">
<g id="graph0" class="graph" transform="scale(1 1) rotate(0) translate(25.6 776.6)">
<polygon fill="white" stroke="none" points="-4,4 -4,-755 644,-755 644,4 -4,4"/>
<g id="clust1" class="cluster"><title>cluster_0</title>
<polygon fill="none" stroke="black" points="8,-8 8,-689 504,-689 504,-8 8,-8"/>
</g>
<g id="clust2" class="cluster"><title>cluster_3</title>
<polygon fill="none" stroke="black" points="16,-16 16,-262 455,-262 455,-16 16,-16"/>
<text text-anchor="start" x="217" y="-247.8" font-family="Times,serif" font-weight="bold" font-size="14.00">FULL</text>
</g>
<g id="clust3" class="cluster"><title>cluster_2</title>
<polygon fill="none" stroke="black" points="16,-270 16,-516 224,-516 224,-270 16,-270"/>
<text text-anchor="start" x="24" y="-501.8" font-family="Times,serif" font-weight="bold" font-size="14.00">MEDIUM</text>
</g>
<g id="clust4" class="cluster"><title>cluster_1</title>
<polygon fill="none" stroke="black" points="275,-270 275,-681 471,-681 471,-270 275,-270"/>
<text text-anchor="start" x="283" y="-666.8" font-family="Times,serif" font-weight="bold" font-size="14.00">SHORT</text>
</g>
<!-- legend -->
<g id="node1" class="node"><title>legend</title>
<g id="a_node1"><a xlink:title="Go to chapter" target="_top">
<polygon fill="WhiteSmoke" stroke="none" points="212.5,-751 7.5,-751 7.5,-697 212.5,-697 212.5,-751"/>
<text text-anchor="start" x="17" y="-731" font-family="Times,serif" font-size="10.00" fill="gray">⟶</text>
<text text-anchor="start" x="32" y="-731" font-family="Times,serif" font-size="10.00"> &#160;&#160;&#160;&#160;Chapter dependencies</text>
<text text-anchor="start" x="17" y="-710" font-family="Times,serif" font-size="10.00" fill="blue">⟶</text>
<text text-anchor="start" x="32" y="-710" font-family="Times,serif" font-size="10.00"> &#160;&#160;&#160;&#160;Recommended path for semester course</text>
</a>
</g>
</g>
<!-- Preface -->
<g id="node2" class="node"><title>Preface</title>
<g id="a_node2"><a xlink:href="Preface.html" xlink:title="Go to chapter" target="_top">
<polygon fill="lightblue" stroke="black" points="453.5,-746.5 302.5,-746.5 302.5,-701.5 453.5,-701.5 453.5,-746.5"/>
<text text-anchor="start" x="355" y="-729.2" font-family="Times,serif" font-size="11.00"> &#160;Preface &#160;</text>
<text text-anchor="start" x="321" y="-712" font-family="Times,serif" font-size="10.00"> &#160;Introduction to the course &#160;</text>
</a>
</g>
</g>
<!-- Basic -->
<g id="node3" class="node"><title>Basic</title>
<g id="a_node3"><a xlink:href="Basic.html" xlink:title="Go to chapter" target="_top">
<polygon fill="lightblue" stroke="black" points="462.5,-650 283.5,-650 283.5,-605 462.5,-605 462.5,-650"/>
<text text-anchor="start" x="354.5" y="-632.7" font-family="Times,serif" font-size="11.00"> &#160;Basic &#160;</text>
<text text-anchor="start" x="302" y="-615.5" font-family="Times,serif" font-size="10.00"> &#160;Key features of Separation Logic &#160;</text>
</a>
</g>
</g>
<!-- Preface&#45;&gt;Basic -->
<g id="edge25" class="edge"><title>Preface&#45;&gt;Basic</title>
<path fill="none" stroke="gray" d="M347.836,-701.082C342.137,-688.917 340.308,-673.57 342.62,-660.125"/>
<polygon fill="gray" stroke="gray" points="346.046,-660.86 345.199,-650.299 339.275,-659.083 346.046,-660.86"/>
</g>
<!-- Preface&#45;&gt;Basic -->
<g id="edge27" class="edge"><title>Preface&#45;&gt;Basic</title>
<path fill="none" stroke="blue" d="M405.844,-701.082C410.3,-688.797 410.465,-673.269 406.616,-659.73"/>
<polygon fill="blue" stroke="blue" points="409.874,-658.451 403.108,-650.299 403.313,-660.892 409.874,-658.451"/>
</g>
<!-- Repr -->
<g id="node4" class="node"><title>Repr</title>
<g id="a_node4"><a xlink:href="Repr.html" xlink:title="Go to chapter" target="_top">
<polygon fill="lightblue" stroke="black" points="441.5,-569 290.5,-569 290.5,-524 441.5,-524 441.5,-569"/>
<text text-anchor="start" x="349.5" y="-551.7" font-family="Times,serif" font-size="11.00"> &#160;Repr &#160;</text>
<text text-anchor="start" x="309" y="-534.5" font-family="Times,serif" font-size="10.00"> &#160;Representation predicates &#160;</text>
</a>
</g>
</g>
<!-- Basic&#45;&gt;Repr -->
<g id="edge11" class="edge"><title>Basic&#45;&gt;Repr</title>
<path fill="none" stroke="gray" d="M340.633,-604.913C336.762,-596.901 335.054,-587.642 335.669,-578.929"/>
<polygon fill="gray" stroke="gray" points="339.118,-579.526 337.467,-569.061 332.231,-578.272 339.118,-579.526"/>
</g>
<!-- Basic&#45;&gt;Repr -->
<g id="edge15" class="edge"><title>Basic&#45;&gt;Repr</title>
<path fill="none" stroke="blue" d="M401.541,-604.913C404.019,-596.814 404.06,-587.44 401.83,-578.646"/>
<polygon fill="blue" stroke="blue" points="405.054,-577.269 398.354,-569.061 398.473,-579.655 405.054,-577.269"/>
</g>
<!-- Hprop -->
<g id="node5" class="node"><title>Hprop</title>
<g id="a_node5"><a xlink:href="Hprop.html" xlink:title="Go to chapter" target="_top">
<polygon fill="lightblue" stroke="black" points="417.5,-485 306.5,-485 306.5,-440 417.5,-440 417.5,-485"/>
<text text-anchor="start" x="342.5" y="-467.7" font-family="Times,serif" font-size="11.00"> &#160;Hprop &#160;</text>
<text text-anchor="start" x="325" y="-450.5" font-family="Times,serif" font-size="10.00"> &#160;Heap predicates &#160;</text>
</a>
</g>
</g>
<!-- Repr&#45;&gt;Hprop -->
<g id="edge12" class="edge"><title>Repr&#45;&gt;Hprop</title>
<path fill="none" stroke="gray" d="M334.833,-523.955C330.86,-515.174 329.405,-504.842 330.577,-495.228"/>
<polygon fill="gray" stroke="gray" points="334.056,-495.715 332.885,-485.185 327.234,-494.147 334.056,-495.715"/>
</g>
<!-- Repr&#45;&gt;Hprop -->
<g id="edge16" class="edge"><title>Repr&#45;&gt;Hprop</title>
<path fill="none" stroke="blue" d="M395.065,-523.955C398.214,-515.081 398.638,-504.622 396.451,-494.922"/>
<polygon fill="blue" stroke="blue" points="399.693,-493.581 393.231,-485.185 393.047,-495.779 399.693,-493.581"/>
</g>
<!-- Himpl -->
<g id="node6" class="node"><title>Himpl</title>
<g id="a_node6"><a xlink:href="Himpl.html" xlink:title="Go to chapter" target="_top">
<polygon fill="lightblue" stroke="black" points="403.5,-404 290.5,-404 290.5,-359 403.5,-359 403.5,-404"/>
<text text-anchor="start" x="327.5" y="-386.7" font-family="Times,serif" font-size="11.00"> &#160;Himpl &#160;</text>
<text text-anchor="start" x="309" y="-369.5" font-family="Times,serif" font-size="10.00"> &#160;Heap entailment &#160;</text>
</a>
</g>
</g>
<!-- Hprop&#45;&gt;Himpl -->
<g id="edge13" class="edge"><title>Hprop&#45;&gt;Himpl</title>
<path fill="none" stroke="gray" d="M327.447,-439.913C322.816,-431.988 320.177,-422.843 319.861,-414.214"/>
<polygon fill="gray" stroke="gray" points="323.365,-414.302 320.65,-404.061 316.386,-413.76 323.365,-414.302"/>
</g>
<!-- Hprop&#45;&gt;Himpl -->
<g id="edge17" class="edge"><title>Hprop&#45;&gt;Himpl</title>
<path fill="none" stroke="blue" d="M388.355,-439.913C390.031,-431.727 389.085,-422.238 385.882,-413.362"/>
<polygon fill="blue" stroke="blue" points="388.941,-411.64 381.538,-404.061 382.599,-414.603 388.941,-411.64"/>
</g>
<!-- Rules -->
<g id="node7" class="node"><title>Rules</title>
<g id="a_node7"><a xlink:href="Rules.html" xlink:title="Go to chapter" target="_top">
<polygon fill="lightblue" stroke="black" points="402.5,-323 291.5,-323 291.5,-278 402.5,-278 402.5,-323"/>
<text text-anchor="start" x="328.5" y="-305.7" font-family="Times,serif" font-size="11.00"> &#160;Rules &#160;</text>
<text text-anchor="start" x="310" y="-288.5" font-family="Times,serif" font-size="10.00"> &#160;Reasoning rules &#160;</text>
</a>
</g>
</g>
<!-- Himpl&#45;&gt;Rules -->
<g id="edge14" class="edge"><title>Himpl&#45;&gt;Rules</title>
<path fill="none" stroke="gray" d="M316.546,-358.913C313.385,-350.901 312.498,-341.642 313.884,-332.929"/>
<polygon fill="gray" stroke="gray" points="317.321,-333.628 316.556,-323.061 310.564,-331.799 317.321,-333.628"/>
</g>
<!-- Himpl&#45;&gt;Rules -->
<g id="edge18" class="edge"><title>Himpl&#45;&gt;Rules</title>
<path fill="none" stroke="blue" d="M377.454,-358.913C380.615,-350.901 381.502,-341.642 380.116,-332.929"/>
<polygon fill="blue" stroke="blue" points="383.436,-331.799 377.444,-323.061 376.679,-333.628 383.436,-331.799"/>
</g>
<!-- WPsem -->
<g id="node8" class="node"><title>WPsem</title>
<g id="a_node8"><a xlink:href="WPsem.html" xlink:title="Go to chapter" target="_top">
<polygon fill="lightblue" stroke="black" points="215.5,-485 24.5,-485 24.5,-440 215.5,-440 215.5,-485"/>
<text text-anchor="start" x="97" y="-467.7" font-family="Times,serif" font-size="11.00"> &#160;WPsem &#160;</text>
<text text-anchor="start" x="43" y="-450.5" font-family="Times,serif" font-size="10.00"> &#160;Semantics of weakest preconditions &#160;</text>
</a>
</g>
</g>
<!-- Rules&#45;&gt;WPsem -->
<g id="edge21" class="edge"><title>Rules&#45;&gt;WPsem</title>
<path fill="none" stroke="gray" d="M291.086,-323.095C239.271,-351.701 169.241,-401.063 134.885,-432.722"/>
<polygon fill="gray" stroke="gray" points="132.123,-430.522 127.339,-439.975 136.974,-435.569 132.123,-430.522"/>
</g>
<!-- Rules&#45;&gt;WPsem -->
<g id="edge22" class="edge"><title>Rules&#45;&gt;WPsem</title>
<path fill="none" stroke="blue" d="M339.593,-323.095C310.582,-352.365 239.743,-403.365 184.806,-434.897"/>
<polygon fill="blue" stroke="blue" points="182.784,-432.018 175.788,-439.975 186.219,-438.117 182.784,-432.018"/>
</g>
<!-- Nondet -->
<g id="node14" class="node"><title>Nondet</title>
<g id="a_node14"><a xlink:href="Nondet.html" xlink:title="Go to chapter" target="_top">
<polygon fill="lightblue" stroke="black" points="426,-231 266,-231 266,-186 426,-186 426,-231"/>
<text text-anchor="start" x="323.5" y="-213.7" font-family="Times,serif" font-size="11.00"> &#160;Nondet &#160;</text>
<text text-anchor="start" x="284" y="-196.5" font-family="Times,serif" font-size="10.00"> &#160;Nondeterministic languages &#160;</text>
</a>
</g>
</g>
<!-- Rules&#45;&gt;Nondet -->
<g id="edge20" class="edge"><title>Rules&#45;&gt;Nondet</title>
<path fill="none" stroke="gray" d="M346.758,-277.714C346.636,-266.769 346.487,-253.302 346.353,-241.233"/>
<polygon fill="gray" stroke="gray" points="349.851,-241.046 346.24,-231.086 342.851,-241.124 349.851,-241.046"/>
</g>
<!-- Postface -->
<g id="node16" class="node"><title>Postface</title>
<g id="a_node16"><a xlink:href="Postface.html" xlink:title="Go to chapter" target="_top">
<polygon fill="lightblue" stroke="black" points="640,-231 516,-231 516,-186 640,-186 640,-231"/>
<text text-anchor="start" x="552.5" y="-213.7" font-family="Times,serif" font-size="11.00"> &#160;Postface &#160;</text>
<text text-anchor="start" x="534" y="-196.5" font-family="Times,serif" font-size="10.00"> &#160;Beyond this course &#160;</text>
</a>
</g>
</g>
<!-- Rules&#45;&gt;Postface -->
<g id="edge26" class="edge"><title>Rules&#45;&gt;Postface</title>
<path fill="none" stroke="gray" d="M402.33,-277.943C435.638,-264.966 478.207,-248.38 513.098,-234.787"/>
<polygon fill="gray" stroke="gray" points="514.674,-237.929 522.721,-231.037 512.133,-231.406 514.674,-237.929"/>
</g>
<!-- WPgen -->
<g id="node9" class="node"><title>WPgen</title>
<g id="a_node9"><a xlink:href="WPgen.html" xlink:title="Go to chapter" target="_top">
<polygon fill="lightblue" stroke="black" points="200,-404 24,-404 24,-359 200,-359 200,-404"/>
<text text-anchor="start" x="89.5" y="-386.7" font-family="Times,serif" font-size="11.00"> &#160;WPgen &#160;</text>
<text text-anchor="start" x="42" y="-369.5" font-family="Times,serif" font-size="10.00"> &#160;Weakest precondition generator &#160;</text>
</a>
</g>
</g>
<!-- WPsem&#45;&gt;WPgen -->
<g id="edge7" class="edge"><title>WPsem&#45;&gt;WPgen</title>
<path fill="none" stroke="gray" d="M87.3599,-439.913C83.3875,-431.901 81.5626,-422.642 82.0668,-413.929"/>
<polygon fill="gray" stroke="gray" points="85.5191,-414.505 83.7396,-404.061 78.6175,-413.335 85.5191,-414.505"/>
</g>
<!-- WPsem&#45;&gt;WPgen -->
<g id="edge9" class="edge"><title>WPsem&#45;&gt;WPgen</title>
<path fill="none" stroke="blue" d="M148.268,-439.913C150.643,-431.814 150.566,-422.44 148.224,-413.646"/>
<polygon fill="blue" stroke="blue" points="151.417,-412.194 144.627,-404.061 144.864,-414.653 151.417,-412.194"/>
</g>
<!-- Wand -->
<g id="node10" class="node"><title>Wand</title>
<g id="a_node10"><a xlink:href="Wand.html" xlink:title="Go to chapter" target="_top">
<polygon fill="lightblue" stroke="black" points="174.5,-323 41.5,-323 41.5,-278 174.5,-278 174.5,-323"/>
<text text-anchor="start" x="89" y="-305.7" font-family="Times,serif" font-size="11.00"> &#160;Wand &#160;</text>
<text text-anchor="start" x="60" y="-288.5" font-family="Times,serif" font-size="10.00"> &#160;Magic wand operator &#160;</text>
</a>
</g>
</g>
<!-- WPgen&#45;&gt;Wand -->
<g id="edge8" class="edge"><title>WPgen&#45;&gt;Wand</title>
<path fill="none" stroke="gray" d="M80.4529,-358.913C76.8862,-350.901 75.5301,-341.642 76.4755,-332.929"/>
<polygon fill="gray" stroke="gray" points="79.9161,-333.58 78.6479,-323.061 73.0798,-332.075 79.9161,-333.58"/>
</g>
<!-- WPgen&#45;&gt;Wand -->
<g id="edge10" class="edge"><title>WPgen&#45;&gt;Wand</title>
<path fill="none" stroke="blue" d="M141.361,-358.913C144.146,-350.814 144.544,-341.44 142.647,-332.646"/>
<polygon fill="blue" stroke="blue" points="145.952,-331.492 139.535,-323.061 139.294,-333.653 145.952,-331.492"/>
</g>
<!-- Affine -->
<g id="node11" class="node"><title>Affine</title>
<g id="a_node11"><a xlink:href="Affine.html" xlink:title="Go to chapter" target="_top">
<polygon fill="lightblue" stroke="black" points="176,-231 32,-231 32,-186 176,-186 176,-231"/>
<text text-anchor="start" x="83" y="-213.7" font-family="Times,serif" font-size="11.00"> &#160;Affine &#160;</text>
<text text-anchor="start" x="50" y="-196.5" font-family="Times,serif" font-size="10.00"> &#160;Affine Separation Logic &#160;</text>
</a>
</g>
</g>
<!-- Wand&#45;&gt;Affine -->
<g id="edge19" class="edge"><title>Wand&#45;&gt;Affine</title>
<path fill="none" stroke="gray" d="M77.6405,-277.714C72.5872,-266.659 71.0005,-253.03 73.06,-240.868"/>
<polygon fill="gray" stroke="gray" points="76.4738,-241.649 75.6515,-231.086 69.7073,-239.856 76.4738,-241.649"/>
</g>
<!-- Wand&#45;&gt;Affine -->
<g id="edge23" class="edge"><title>Wand&#45;&gt;Affine</title>
<path fill="none" stroke="blue" d="M136.423,-277.714C140.534,-266.548 140.876,-252.757 137.633,-240.504"/>
<polygon fill="blue" stroke="blue" points="140.929,-239.325 134.267,-231.086 134.337,-241.68 140.929,-239.325"/>
</g>
<!-- Struct -->
<g id="node12" class="node"><title>Struct</title>
<g id="a_node12"><a xlink:href="Struct.html" xlink:title="Go to chapter" target="_top">
<polygon fill="lightblue" stroke="black" points="237.5,-150 116.5,-150 116.5,-105 237.5,-105 237.5,-150"/>
<text text-anchor="start" x="158" y="-132.7" font-family="Times,serif" font-size="11.00"> &#160;Struct &#160;</text>
<text text-anchor="start" x="135" y="-115.5" font-family="Times,serif" font-size="10.00"> &#160;Arrays and records &#160;</text>
</a>
</g>
</g>
<!-- Affine&#45;&gt;Struct -->
<g id="edge2" class="edge"><title>Affine&#45;&gt;Struct</title>
<path fill="none" stroke="gray" d="M93.4935,-185.913C98.2892,-176.856 107.464,-166.205 118.621,-156.552"/>
<polygon fill="gray" stroke="gray" points="121.066,-159.076 126.633,-150.061 116.66,-153.637 121.066,-159.076"/>
</g>
<!-- Affine&#45;&gt;Struct -->
<g id="edge5" class="edge"><title>Affine&#45;&gt;Struct</title>
<path fill="none" stroke="blue" d="M154.402,-185.913C165.54,-177.466 175.433,-167.632 182.135,-158.514"/>
<polygon fill="blue" stroke="blue" points="185.099,-160.375 187.52,-150.061 179.195,-156.614 185.099,-160.375"/>
</g>
<!-- Rich -->
<g id="node13" class="node"><title>Rich</title>
<g id="a_node13"><a xlink:href="Rich.html" xlink:title="Go to chapter" target="_top">
<polygon fill="lightblue" stroke="black" points="276.5,-69 77.5,-69 77.5,-24 276.5,-24 276.5,-69"/>
<text text-anchor="start" x="160.5" y="-51.7" font-family="Times,serif" font-size="11.00"> &#160;Rich &#160;</text>
<text text-anchor="start" x="96" y="-34.5" font-family="Times,serif" font-size="10.00"> &#160;Assertions, loops, and n&#45;ary functions &#160;</text>
</a>
</g>
</g>
<!-- Struct&#45;&gt;Rich -->
<g id="edge3" class="edge"><title>Struct&#45;&gt;Rich</title>
<path fill="none" stroke="gray" d="M146.546,-104.913C143.385,-96.901 142.498,-87.6417 143.884,-78.9295"/>
<polygon fill="gray" stroke="gray" points="147.321,-79.6282 146.556,-69.061 140.564,-77.7986 147.321,-79.6282"/>
</g>
<!-- Struct&#45;&gt;Rich -->
<g id="edge6" class="edge"><title>Struct&#45;&gt;Rich</title>
<path fill="none" stroke="blue" d="M207.454,-104.913C210.615,-96.901 211.502,-87.6417 210.116,-78.9295"/>
<polygon fill="blue" stroke="blue" points="213.436,-77.7986 207.444,-69.061 206.679,-79.6282 213.436,-77.7986"/>
</g>
<!-- Rich&#45;&gt;Nondet -->
<g id="edge24" class="edge"><title>Rich&#45;&gt;Nondet</title>
<path fill="none" stroke="blue" d="M200.571,-69.0946C230.414,-97.7011 281.908,-147.063 314.935,-178.722"/>
<polygon fill="blue" stroke="blue" points="312.86,-181.581 322.501,-185.975 317.704,-176.528 312.86,-181.581"/>
</g>
<!-- Partial -->
<g id="node15" class="node"><title>Partial</title>
<g id="a_node15"><a xlink:href="Partial.html" xlink:title="Go to chapter" target="_top">
<polygon fill="lightblue" stroke="black" points="446.5,-150 327.5,-150 327.5,-105 446.5,-105 446.5,-150"/>
<text text-anchor="start" x="366.5" y="-132.7" font-family="Times,serif" font-size="11.00"> &#160;Partial &#160;</text>
<text text-anchor="start" x="346" y="-115.5" font-family="Times,serif" font-size="10.00"> &#160;Partial correctness &#160;</text>
</a>
</g>
</g>
<!-- Nondet&#45;&gt;Partial -->
<g id="edge1" class="edge"><title>Nondet&#45;&gt;Partial</title>
<path fill="none" stroke="gray" d="M326.749,-185.913C327.822,-177.291 332.278,-167.225 338.955,-157.951"/>
<polygon fill="gray" stroke="gray" points="341.777,-160.029 345.366,-150.061 336.344,-155.615 341.777,-160.029"/>
</g>
<!-- Nondet&#45;&gt;Partial -->
<g id="edge4" class="edge"><title>Nondet&#45;&gt;Partial</title>
<path fill="none" stroke="blue" d="M387.658,-185.913C394.977,-177.901 400.669,-168.642 403.804,-159.929"/>
<polygon fill="blue" stroke="blue" points="407.242,-160.61 406.254,-150.061 400.448,-158.923 407.242,-160.61"/>
</g>
<!-- Partial&#45;&gt;Postface -->
<g id="edge28" class="edge"><title>Partial&#45;&gt;Postface</title>
<path fill="none" stroke="blue" d="M439.128,-150.061C463.018,-159.942 491.504,-171.724 516.442,-182.039"/>
<polygon fill="blue" stroke="blue" points="515.23,-185.325 525.808,-185.913 517.905,-178.856 515.23,-185.325"/>
</g>
</g>
</svg>
