<?xml version="1.0" encoding="UTF-8" standalone="no"?>
<?xml-stylesheet href="common/css/sf.css" type="text/css"?>
<!DOCTYPE svg PUBLIC "-//W3C//DTD SVG 1.1//EN"
 "http://www.w3.org/Graphics/SVG/1.1/DTD/svg11.dtd">
<!-- Generated by graphviz version 2.38.0 (20140413.2041)
 -->
<!-- Pages: 1 -->
<svg width="691pt" height="789pt"
 viewBox="21.60 21.60 669.60 767.43" xmlns="http://www.w3.org/2000/svg" xmlns:xlink="http://www.w3.org/1999/xlink">
<g id="graph0" class="graph" transform="scale(0.96861 0.96861) rotate(0) translate(26.3 788.3)">
<polygon fill="white" stroke="none" points="-4,4 -4,-766 665,-766 665,4 -4,4"/>
<g id="clust1" class="cluster"><title>cluster_0</title>
<polygon fill="none" stroke="black" points="8,-8 8,-700 653,-700 653,-8 8,-8"/>
</g>
<g id="clust2" class="cluster"><title>cluster_4</title>
<polygon fill="none" stroke="black" points="505,-108 505,-273 645,-273 645,-108 505,-108"/>
<text text-anchor="start" x="528" y="-258.8" font-family="Times,serif" font-weight="bold" font-size="14.00">CONCLUSION</text>
</g>
<g id="clust3" class="cluster"><title>cluster_3</title>
<polygon fill="none" stroke="black" points="16,-16 16,-273 455,-273 455,-16 16,-16"/>
<text text-anchor="start" x="217" y="-258.8" font-family="Times,serif" font-weight="bold" font-size="14.00">FULL</text>
</g>
<g id="clust4" class="cluster"><title>cluster_2</title>
<polygon fill="none" stroke="black" points="364,-281 364,-527 572,-527 572,-281 364,-281"/>
<text text-anchor="start" x="372" y="-512.8" font-family="Times,serif" font-weight="bold" font-size="14.00">MEDIUM</text>
</g>
<g id="clust5" class="cluster"><title>cluster_1</title>
<polygon fill="none" stroke="black" points="152,-281 152,-692 348,-692 348,-281 152,-281"/>
<text text-anchor="start" x="160" y="-677.8" font-family="Times,serif" font-weight="bold" font-size="14.00">SHORT</text>
</g>
<!-- legend -->
<g id="node1" class="node"><title>legend</title>
<g id="a_node1"><a xlink:title="Go to chapter" target="_top">
<polygon fill="WhiteSmoke" stroke="none" points="212.5,-762 7.5,-762 7.5,-708 212.5,-708 212.5,-762"/>
<text text-anchor="start" x="17" y="-742" font-family="Times,serif" font-size="10.00" fill="gray">⟶</text>
<text text-anchor="start" x="32" y="-742" font-family="Times,serif" font-size="10.00"> &#160;&#160;&#160;&#160;Chapter dependencies</text>
<text text-anchor="start" x="17" y="-721" font-family="Times,serif" font-size="10.00" fill="blue">⟶</text>
<text text-anchor="start" x="32" y="-721" font-family="Times,serif" font-size="10.00"> &#160;&#160;&#160;&#160;Recommended path for semester course</text>
</a>
</g>
</g>
<!-- Preface -->
<g id="node2" class="node"><title>Preface</title>
<g id="a_node2"><a xlink:href="Preface.html" xlink:title="Go to chapter" target="_top">
<polygon fill="lightblue" stroke="black" points="453.5,-757.5 302.5,-757.5 302.5,-712.5 453.5,-712.5 453.5,-757.5"/>
<text text-anchor="start" x="355" y="-740.2" font-family="Times,serif" font-size="11.00"> &#160;Preface &#160;</text>
<text text-anchor="start" x="321" y="-723" font-family="Times,serif" font-size="10.00"> &#160;Introduction to the course &#160;</text>
</a>
</g>
</g>
<!-- Basic -->
<g id="node3" class="node"><title>Basic</title>
<g id="a_node3"><a xlink:href="Basic.html" xlink:title="Go to chapter" target="_top">
<polygon fill="lightblue" stroke="black" points="339.5,-661 160.5,-661 160.5,-616 339.5,-616 339.5,-661"/>
<text text-anchor="start" x="231.5" y="-643.7" font-family="Times,serif" font-size="11.00"> &#160;Basic &#160;</text>
<text text-anchor="start" x="179" y="-626.5" font-family="Times,serif" font-size="10.00"> &#160;Key features of Separation Logic &#160;</text>
</a>
</g>
</g>
<!-- Preface&#45;&gt;Basic -->
<g id="edge27" class="edge"><title>Preface&#45;&gt;Basic</title>
<path fill="none" stroke="gray" d="M319.73,-712.32C296.492,-699.234 272.887,-682.404 257.574,-668.221"/>
<polygon fill="gray" stroke="gray" points="259.934,-665.632 250.367,-661.079 255.006,-670.604 259.934,-665.632"/>
</g>
<!-- Preface&#45;&gt;Basic -->
<g id="edge29" class="edge"><title>Preface&#45;&gt;Basic</title>
<path fill="none" stroke="blue" d="M377.316,-712.082C364.504,-698.437 341.19,-680.789 317.089,-666.313"/>
<polygon fill="blue" stroke="blue" points="318.595,-663.14 308.191,-661.136 315.075,-669.19 318.595,-663.14"/>
</g>
<!-- Repr -->
<g id="node4" class="node"><title>Repr</title>
<g id="a_node4"><a xlink:href="Repr.html" xlink:title="Go to chapter" target="_top">
<polygon fill="lightblue" stroke="black" points="318.5,-580 167.5,-580 167.5,-535 318.5,-535 318.5,-580"/>
<text text-anchor="start" x="226.5" y="-562.7" font-family="Times,serif" font-size="11.00"> &#160;Repr &#160;</text>
<text text-anchor="start" x="186" y="-545.5" font-family="Times,serif" font-size="10.00"> &#160;Representation predicates &#160;</text>
</a>
</g>
</g>
<!-- Basic&#45;&gt;Repr -->
<g id="edge13" class="edge"><title>Basic&#45;&gt;Repr</title>
<path fill="none" stroke="gray" d="M217.633,-615.913C213.762,-607.901 212.054,-598.642 212.669,-589.929"/>
<polygon fill="gray" stroke="gray" points="216.118,-590.526 214.467,-580.061 209.231,-589.272 216.118,-590.526"/>
</g>
<!-- Basic&#45;&gt;Repr -->
<g id="edge17" class="edge"><title>Basic&#45;&gt;Repr</title>
<path fill="none" stroke="blue" d="M278.541,-615.913C281.019,-607.814 281.06,-598.44 278.83,-589.646"/>
<polygon fill="blue" stroke="blue" points="282.054,-588.269 275.354,-580.061 275.473,-590.655 282.054,-588.269"/>
</g>
<!-- Hprop -->
<g id="node5" class="node"><title>Hprop</title>
<g id="a_node5"><a xlink:href="Hprop.html" xlink:title="Go to chapter" target="_top">
<polygon fill="lightblue" stroke="black" points="282.5,-496 171.5,-496 171.5,-451 282.5,-451 282.5,-496"/>
<text text-anchor="start" x="207.5" y="-478.7" font-family="Times,serif" font-size="11.00"> &#160;Hprop &#160;</text>
<text text-anchor="start" x="190" y="-461.5" font-family="Times,serif" font-size="10.00"> &#160;Heap predicates &#160;</text>
</a>
</g>
</g>
<!-- Repr&#45;&gt;Hprop -->
<g id="edge14" class="edge"><title>Repr&#45;&gt;Hprop</title>
<path fill="none" stroke="gray" d="M208.68,-534.955C203.422,-526.174 200.455,-515.842 200.22,-506.228"/>
<polygon fill="gray" stroke="gray" points="203.714,-506.442 201.058,-496.185 196.738,-505.859 203.714,-506.442"/>
</g>
<!-- Repr&#45;&gt;Hprop -->
<g id="edge18" class="edge"><title>Repr&#45;&gt;Hprop</title>
<path fill="none" stroke="blue" d="M268.912,-534.955C270.802,-525.894 269.608,-515.181 265.818,-505.31"/>
<polygon fill="blue" stroke="blue" points="268.909,-503.664 261.404,-496.185 262.608,-506.712 268.909,-503.664"/>
</g>
<!-- Himpl -->
<g id="node6" class="node"><title>Himpl</title>
<g id="a_node6"><a xlink:href="Himpl.html" xlink:title="Go to chapter" target="_top">
<polygon fill="lightblue" stroke="black" points="283.5,-415 170.5,-415 170.5,-370 283.5,-370 283.5,-415"/>
<text text-anchor="start" x="207.5" y="-397.7" font-family="Times,serif" font-size="11.00"> &#160;Himpl &#160;</text>
<text text-anchor="start" x="189" y="-380.5" font-family="Times,serif" font-size="10.00"> &#160;Heap entailment &#160;</text>
</a>
</g>
</g>
<!-- Hprop&#45;&gt;Himpl -->
<g id="edge15" class="edge"><title>Hprop&#45;&gt;Himpl</title>
<path fill="none" stroke="gray" d="M196.546,-450.913C193.385,-442.901 192.498,-433.642 193.884,-424.929"/>
<polygon fill="gray" stroke="gray" points="197.321,-425.628 196.556,-415.061 190.564,-423.799 197.321,-425.628"/>
</g>
<!-- Hprop&#45;&gt;Himpl -->
<g id="edge19" class="edge"><title>Hprop&#45;&gt;Himpl</title>
<path fill="none" stroke="blue" d="M257.454,-450.913C260.615,-442.901 261.502,-433.642 260.116,-424.929"/>
<polygon fill="blue" stroke="blue" points="263.436,-423.799 257.444,-415.061 256.679,-425.628 263.436,-423.799"/>
</g>
<!-- Rules -->
<g id="node7" class="node"><title>Rules</title>
<g id="a_node7"><a xlink:href="Rules.html" xlink:title="Go to chapter" target="_top">
<polygon fill="lightblue" stroke="black" points="282.5,-334 171.5,-334 171.5,-289 282.5,-289 282.5,-334"/>
<text text-anchor="start" x="208.5" y="-316.7" font-family="Times,serif" font-size="11.00"> &#160;Rules &#160;</text>
<text text-anchor="start" x="190" y="-299.5" font-family="Times,serif" font-size="10.00"> &#160;Reasoning rules &#160;</text>
</a>
</g>
</g>
<!-- Himpl&#45;&gt;Rules -->
<g id="edge16" class="edge"><title>Himpl&#45;&gt;Rules</title>
<path fill="none" stroke="gray" d="M196.546,-369.913C193.385,-361.901 192.498,-352.642 193.884,-343.929"/>
<polygon fill="gray" stroke="gray" points="197.321,-344.628 196.556,-334.061 190.564,-342.799 197.321,-344.628"/>
</g>
<!-- Himpl&#45;&gt;Rules -->
<g id="edge20" class="edge"><title>Himpl&#45;&gt;Rules</title>
<path fill="none" stroke="blue" d="M257.454,-369.913C260.615,-361.901 261.502,-352.642 260.116,-343.929"/>
<polygon fill="blue" stroke="blue" points="263.436,-342.799 257.444,-334.061 256.679,-344.628 263.436,-342.799"/>
</g>
<!-- WPsem -->
<g id="node8" class="node"><title>WPsem</title>
<g id="a_node8"><a xlink:href="WPsem.html" xlink:title="Go to chapter" target="_top">
<polygon fill="lightblue" stroke="black" points="563.5,-496 372.5,-496 372.5,-451 563.5,-451 563.5,-496"/>
<text text-anchor="start" x="445" y="-478.7" font-family="Times,serif" font-size="11.00"> &#160;WPsem &#160;</text>
<text text-anchor="start" x="391" y="-461.5" font-family="Times,serif" font-size="10.00"> &#160;Semantics of weakest preconditions &#160;</text>
</a>
</g>
</g>
<!-- Rules&#45;&gt;WPsem -->
<g id="edge23" class="edge"><title>Rules&#45;&gt;WPsem</title>
<path fill="none" stroke="gray" d="M236.36,-334.095C267.965,-363.425 343.457,-414.576 401.165,-446.091"/>
<polygon fill="gray" stroke="gray" points="399.799,-449.33 410.265,-450.975 403.109,-443.162 399.799,-449.33"/>
</g>
<!-- Rules&#45;&gt;WPsem -->
<g id="edge24" class="edge"><title>Rules&#45;&gt;WPsem</title>
<path fill="none" stroke="blue" d="M282.893,-333.059C337.521,-361.591 413.502,-412.011 450.914,-444.041"/>
<polygon fill="blue" stroke="blue" points="448.915,-446.947 458.715,-450.975 453.566,-441.715 448.915,-446.947"/>
</g>
<!-- Nondet -->
<g id="node14" class="node"><title>Nondet</title>
<g id="a_node14"><a xlink:href="Nondet.html" xlink:title="Go to chapter" target="_top">
<polygon fill="lightblue" stroke="black" points="189,-242 65,-242 65,-197 189,-197 189,-242"/>
<text text-anchor="start" x="104.5" y="-224.7" font-family="Times,serif" font-size="11.00"> &#160;Nondet &#160;</text>
<text text-anchor="start" x="83" y="-207.5" font-family="Times,serif" font-size="10.00"> &#160;Nondeterministism &#160;</text>
</a>
</g>
</g>
<!-- Rules&#45;&gt;Nondet -->
<g id="edge22" class="edge"><title>Rules&#45;&gt;Nondet</title>
<path fill="none" stroke="gray" d="M203.048,-288.943C189.787,-277.008 173.134,-262.021 158.795,-249.116"/>
<polygon fill="gray" stroke="gray" points="160.878,-246.281 151.104,-242.193 156.195,-251.484 160.878,-246.281"/>
</g>
<!-- Postscript -->
<g id="node16" class="node"><title>Postscript</title>
<g id="a_node16"><a xlink:href="Postscript.html" xlink:title="Go to chapter" target="_top">
<polygon fill="lightblue" stroke="black" points="637,-242 513,-242 513,-197 637,-197 637,-242"/>
<text text-anchor="start" x="547" y="-224.7" font-family="Times,serif" font-size="11.00"> &#160;Postscript &#160;</text>
<text text-anchor="start" x="531" y="-207.5" font-family="Times,serif" font-size="10.00"> &#160;Beyond this course &#160;</text>
</a>
</g>
</g>
<!-- Rules&#45;&gt;Postscript -->
<g id="edge28" class="edge"><title>Rules&#45;&gt;Postscript</title>
<path fill="none" stroke="gray" d="M282.526,-296.14C342.303,-280.68 437.607,-256.033 503.079,-239.1"/>
<polygon fill="gray" stroke="gray" points="504.112,-242.448 512.917,-236.556 502.36,-235.671 504.112,-242.448"/>
</g>
<!-- WPgen -->
<g id="node9" class="node"><title>WPgen</title>
<g id="a_node9"><a xlink:href="WPgen.html" xlink:title="Go to chapter" target="_top">
<polygon fill="lightblue" stroke="black" points="553,-415 377,-415 377,-370 553,-370 553,-415"/>
<text text-anchor="start" x="442.5" y="-397.7" font-family="Times,serif" font-size="11.00"> &#160;WPgen &#160;</text>
<text text-anchor="start" x="395" y="-380.5" font-family="Times,serif" font-size="10.00"> &#160;Weakest precondition generator &#160;</text>
</a>
</g>
</g>
<!-- WPsem&#45;&gt;WPgen -->
<g id="edge9" class="edge"><title>WPsem&#45;&gt;WPgen</title>
<path fill="none" stroke="gray" d="M436.726,-450.913C433.261,-442.901 432.022,-433.642 433.078,-424.929"/>
<polygon fill="gray" stroke="gray" points="436.516,-425.594 435.375,-415.061 429.699,-424.007 436.516,-425.594"/>
</g>
<!-- WPsem&#45;&gt;WPgen -->
<g id="edge11" class="edge"><title>WPsem&#45;&gt;WPgen</title>
<path fill="none" stroke="blue" d="M497.634,-450.913C500.522,-442.814 501.038,-433.44 499.253,-424.646"/>
<polygon fill="blue" stroke="blue" points="502.582,-423.565 496.263,-415.061 495.9,-425.65 502.582,-423.565"/>
</g>
<!-- Wand -->
<g id="node10" class="node"><title>Wand</title>
<g id="a_node10"><a xlink:href="Wand.html" xlink:title="Go to chapter" target="_top">
<polygon fill="lightblue" stroke="black" points="531.5,-334 398.5,-334 398.5,-289 531.5,-289 531.5,-334"/>
<text text-anchor="start" x="446" y="-316.7" font-family="Times,serif" font-size="11.00"> &#160;Wand &#160;</text>
<text text-anchor="start" x="417" y="-299.5" font-family="Times,serif" font-size="10.00"> &#160;Magic wand operator &#160;</text>
</a>
</g>
</g>
<!-- WPgen&#45;&gt;Wand -->
<g id="edge10" class="edge"><title>WPgen&#45;&gt;Wand</title>
<path fill="none" stroke="gray" d="M434.546,-369.913C431.385,-361.901 430.498,-352.642 431.884,-343.929"/>
<polygon fill="gray" stroke="gray" points="435.321,-344.628 434.556,-334.061 428.564,-342.799 435.321,-344.628"/>
</g>
<!-- WPgen&#45;&gt;Wand -->
<g id="edge12" class="edge"><title>WPgen&#45;&gt;Wand</title>
<path fill="none" stroke="blue" d="M495.454,-369.913C498.615,-361.901 499.502,-352.642 498.116,-343.929"/>
<polygon fill="blue" stroke="blue" points="501.436,-342.799 495.444,-334.061 494.679,-344.628 501.436,-342.799"/>
</g>
<!-- Affine -->
<g id="node11" class="node"><title>Affine</title>
<g id="a_node11"><a xlink:href="Affine.html" xlink:title="Go to chapter" target="_top">
<polygon fill="lightblue" stroke="black" points="423,-242 279,-242 279,-197 423,-197 423,-242"/>
<text text-anchor="start" x="330" y="-224.7" font-family="Times,serif" font-size="11.00"> &#160;Affine &#160;</text>
<text text-anchor="start" x="297" y="-207.5" font-family="Times,serif" font-size="10.00"> &#160;Affine Separation Logic &#160;</text>
</a>
</g>
</g>
<!-- Wand&#45;&gt;Affine -->
<g id="edge21" class="edge"><title>Wand&#45;&gt;Affine</title>
<path fill="none" stroke="gray" d="M408.398,-288.943C388.658,-277.229 369.241,-262.575 356.295,-249.835"/>
<polygon fill="gray" stroke="gray" points="358.52,-247.091 349.126,-242.193 353.415,-251.881 358.52,-247.091"/>
</g>
<!-- Wand&#45;&gt;Affine -->
<g id="edge25" class="edge"><title>Wand&#45;&gt;Affine</title>
<path fill="none" stroke="blue" d="M466.795,-288.714C456.174,-276.277 436.895,-260.582 416.244,-247.384"/>
<polygon fill="blue" stroke="blue" points="417.999,-244.354 407.65,-242.086 414.326,-250.313 417.999,-244.354"/>
</g>
<!-- Wand&#45;&gt;Postscript -->
<!-- Struct -->
<g id="node12" class="node"><title>Struct</title>
<g id="a_node12"><a xlink:href="Struct.html" xlink:title="Go to chapter" target="_top">
<polygon fill="lightblue" stroke="black" points="446.5,-161 325.5,-161 325.5,-116 446.5,-116 446.5,-161"/>
<text text-anchor="start" x="367" y="-143.7" font-family="Times,serif" font-size="11.00"> &#160;Struct &#160;</text>
<text text-anchor="start" x="344" y="-126.5" font-family="Times,serif" font-size="10.00"> &#160;Arrays and records &#160;</text>
</a>
</g>
</g>
<!-- Affine&#45;&gt;Struct -->
<g id="edge4" class="edge"><title>Affine&#45;&gt;Struct</title>
<path fill="none" stroke="gray" d="M330.11,-196.913C330.524,-188.378 334.145,-178.429 340.012,-169.232"/>
<polygon fill="gray" stroke="gray" points="342.913,-171.195 346.004,-161.061 337.268,-167.055 342.913,-171.195"/>
</g>
<!-- Affine&#45;&gt;Struct -->
<g id="edge7" class="edge"><title>Affine&#45;&gt;Struct</title>
<path fill="none" stroke="blue" d="M391.018,-196.913C397.729,-188.901 402.718,-179.642 405.191,-170.929"/>
<polygon fill="blue" stroke="blue" points="408.643,-171.51 406.891,-161.061 401.745,-170.322 408.643,-171.51"/>
</g>
<!-- Rich -->
<g id="node13" class="node"><title>Rich</title>
<g id="a_node13"><a xlink:href="Rich.html" xlink:title="Go to chapter" target="_top">
<polygon fill="lightblue" stroke="black" points="446,-80 326,-80 326,-24 446,-24 446,-80"/>
<text text-anchor="start" x="369" y="-63.2" font-family="Times,serif" font-size="11.00"> &#160;Rich &#160;</text>
<text text-anchor="start" x="346.5" y="-46" font-family="Times,serif" font-size="10.00"> &#160;Assertions, loops, </text>
<text text-anchor="start" x="344" y="-35" font-family="Times,serif" font-size="10.00">and n&#45;ary functions &#160;</text>
</a>
</g>
</g>
<!-- Struct&#45;&gt;Rich -->
<g id="edge5" class="edge"><title>Struct&#45;&gt;Rich</title>
<path fill="none" stroke="gray" d="M356.059,-115.739C352.912,-107.937 351.715,-98.9038 352.468,-90.1655"/>
<polygon fill="gray" stroke="gray" points="355.947,-90.5918 354.248,-80.1341 349.055,-89.3688 355.947,-90.5918"/>
</g>
<!-- Struct&#45;&gt;Rich -->
<g id="edge8" class="edge"><title>Struct&#45;&gt;Rich</title>
<path fill="none" stroke="blue" d="M415.941,-115.739C419.088,-107.937 420.285,-98.9038 419.532,-90.1655"/>
<polygon fill="blue" stroke="blue" points="422.945,-89.3688 417.752,-80.1341 416.053,-90.5918 422.945,-89.3688"/>
</g>
<!-- Rich&#45;&gt;Nondet -->
<g id="edge26" class="edge"><title>Rich&#45;&gt;Nondet</title>
<path fill="none" stroke="blue" d="M342.574,-80.0844C294.767,-111.002 218.36,-160.416 170.517,-191.356"/>
<polygon fill="blue" stroke="blue" points="168.426,-188.541 161.93,-196.91 172.228,-194.419 168.426,-188.541"/>
</g>
<!-- Partial -->
<g id="node15" class="node"><title>Partial</title>
<g id="a_node15"><a xlink:href="Partial.html" xlink:title="Go to chapter" target="_top">
<polygon fill="lightblue" stroke="black" points="235.5,-161 116.5,-161 116.5,-116 235.5,-116 235.5,-161"/>
<text text-anchor="start" x="155.5" y="-143.7" font-family="Times,serif" font-size="11.00"> &#160;Partial &#160;</text>
<text text-anchor="start" x="135" y="-126.5" font-family="Times,serif" font-size="10.00"> &#160;Partial correctness &#160;</text>
</a>
</g>
</g>
<!-- Nondet&#45;&gt;Partial -->
<g id="edge3" class="edge"><title>Nondet&#45;&gt;Partial</title>
<path fill="none" stroke="gray" d="M109.935,-196.913C111.901,-188.204 117.467,-178.022 125.204,-168.67"/>
<polygon fill="gray" stroke="gray" points="128.003,-170.797 132.183,-161.061 122.844,-166.065 128.003,-170.797"/>
</g>
<!-- Nondet&#45;&gt;Partial -->
<g id="edge6" class="edge"><title>Nondet&#45;&gt;Partial</title>
<path fill="none" stroke="blue" d="M170.844,-196.913C179.062,-188.814 185.748,-179.44 189.752,-170.646"/>
<polygon fill="blue" stroke="blue" points="193.106,-171.656 193.071,-161.061 186.491,-169.365 193.106,-171.656"/>
</g>
<!-- Partial&#45;&gt;Postscript -->
<g id="edge30" class="edge"><title>Partial&#45;&gt;Postscript</title>
<path fill="none" stroke="blue" d="M235.627,-151.306C306.904,-165.418 426.128,-189.024 502.62,-204.169"/>
<polygon fill="blue" stroke="blue" points="502.167,-207.647 512.656,-206.156 503.526,-200.781 502.167,-207.647"/>
</g>
<!-- Bib -->
<g id="node17" class="node"><title>Bib</title>
<g id="a_node17"><a xlink:href="Bib.html" xlink:title="Go to chapter" target="_top">
<polygon fill="lightblue" stroke="black" points="637,-161 537,-161 537,-116 637,-116 637,-161"/>
<text text-anchor="start" x="573" y="-143.7" font-family="Times,serif" font-size="11.00"> &#160;Bib &#160;</text>
<text text-anchor="start" x="555" y="-126.5" font-family="Times,serif" font-size="10.00"> &#160;Bibliography &#160;</text>
</a>
</g>
</g>
<!-- Postscript&#45;&gt;Bib -->
<g id="edge1" class="edge"><title>Postscript&#45;&gt;Bib</title>
<path fill="none" stroke="gray" d="M547.825,-196.913C545.839,-188.727 546.424,-179.238 549.29,-170.362"/>
<polygon fill="gray" stroke="gray" points="552.554,-171.631 553.281,-161.061 546.121,-168.87 552.554,-171.631"/>
</g>
<!-- Postscript&#45;&gt;Bib -->
<g id="edge2" class="edge"><title>Postscript&#45;&gt;Bib</title>
<path fill="none" stroke="blue" d="M608.733,-196.913C613.064,-188.988 615.355,-179.843 615.343,-171.214"/>
<polygon fill="blue" stroke="blue" points="618.795,-170.593 614.169,-161.061 611.841,-171.397 618.795,-170.593"/>
</g>
</g>
</svg>
